<svg id="Flat" viewBox="0 0 64 64" xmlns="http://www.w3.org/2000/svg"><rect fill="#eff2fc" height="62" rx="7" width="62" x="1" y="1"/><rect fill="#e0466d" height="56" rx="4" transform="matrix(0 1 -1 0 64 0)" width="56" x="4" y="4"/><g fill="#f9fafe"><path d="m21 9.5a1.5 1.5 0 0 0 -1.5-1.5h-8a1.5 1.5 0 0 0 -1.5 1.5v16a1.5 1.5 0 0 0 1.5 1.5h8a1.5 1.5 0 0 0 1.5-1.5 1.5 1.5 0 0 0 -1.5-1.5h-6.5v-5h5.5a1.5 1.5 0 0 0 1.5-1.5 1.5 1.5 0 0 0 -1.5-1.5h-5.5v-5h6.5a1.5 1.5 0 0 0 1.5-1.5z"/><path d="m34.17 8.158a1.5 1.5 0 0 0 -2.012.671l-2.658 5.316-2.659-5.316a1.5 1.5 0 0 0 -2.012-.671 1.5 1.5 0 0 0 -.671 2.012l3.664 7.33-3.664 7.33a1.5 1.5 0 0 0 .671 2.012 1.5 1.5 0 0 0 2.012-.671l2.659-5.317 2.659 5.316a1.5 1.5 0 0 0 2.012.671 1.5 1.5 0 0 0 .671-2.012l-3.665-7.329 3.664-7.329a1.5 1.5 0 0 0 -.671-2.013z"/><rect height="19" rx="1.5" width="3" x="38" y="7.999"/><path d="m53.5 8h-8a1.5 1.5 0 0 0 -1.5 1.5 1.5 1.5 0 0 0 1.5 1.5h2.5v14.5a1.5 1.5 0 0 0 1.5 1.5 1.5 1.5 0 0 0 1.5-1.5v-14.5h2.5a1.5 1.5 0 0 0 1.5-1.5 1.5 1.5 0 0 0 -1.5-1.5z"/><path d="m34 43.5-10-7.5v4h-14v7h14v4z"/></g><path d="m54 56h-15l6-12-6-13h15z" fill="#4f5c6a"/><path d="m49 53-10 3v-25l10 3z" fill="#f9fafe"/><path d="m47 45.25a.75.75 0 0 1 -.75-.75v-2a.75.75 0 0 1 1.5 0v2a.75.75 0 0 1 -.75.75z" fill="#4f5c6a"/></svg>