<svg clip-rule="evenodd" fill-rule="evenodd" height="512" image-rendering="optimizeQuality" shape-rendering="geometricPrecision" text-rendering="geometricPrecision" viewBox="0 0 1707 1707" width="512" xmlns="http://www.w3.org/2000/svg"><g id="Layer_x0020_1"><path d="m689 1686h-167c-26 0-48-22-48-49v-133c-26-9-50-19-74-32l-95 95c-10 9-22 14-34 14-13 0-25-5-35-14l-118-118c-9-9-14-21-14-34s5-25 14-34l97-97c-12-23-22-47-30-72h-137c-26 0-48-22-48-48v-167c0-27 22-49 48-49h137c8-25 18-49 30-72l-97-97c-18-19-18-49 0-68l118-118c10-9 22-14 35-14 12 0 24 5 34 14l95 95c24-13 48-23 74-31v-134c0-27 22-48 48-48h167c27 0 48 21 48 48v131c27 8 53 18 78 31l92-92c9-9 21-14 34-14s25 5 34 14l118 118c9 9 14 21 14 34s-5 25-14 34l-91 91c14 25 25 51 33 78h128c27 0 48 22 48 49v167c0 26-21 48-48 48h-128c-8 27-19 53-33 79l91 90c9 9 14 21 14 34s-5 25-14 34l-118 118c-9 9-21 14-34 14s-25-5-34-14l-92-92c-25 13-51 24-78 32v130c0 27-21 49-48 49zm-79-363c-134 0-243-109-243-243s109-243 243-243c135 0 244 109 244 243s-109 243-244 243z" fill="#ff5757"/><path d="m1380 745c-16 0-30-10-34-26l-18-68c-14-1-27-3-40-6l-36 61c-6 11-18 18-30 18-6 0-12-2-18-5l-84-49c-16-10-22-31-12-48l37-63c-9-10-16-20-23-31l-71 19c-3 0-6 1-9 1-16 0-30-11-34-26l-25-95c-5-18 7-38 25-42l73-19c1-13 2-25 5-37l-65-38c-8-5-14-12-16-21s-1-19 4-27l49-84c6-11 18-17 30-17 6 0 12 1 18 5l64 37c10-8 20-15 30-22l-19-72c-2-9-1-19 4-27 4-8 12-14 21-16l94-25c3-1 6-1 9-1 16 0 30 11 34 26l19 71c12 1 25 3 37 5l37-63c7-11 18-17 31-17 6 0 12 1 17 5l84 49c9 4 14 12 17 21 2 9 1 19-4 27l-36 61c9 10 17 21 24 32l69-18c3-1 6-1 9-1 16 0 30 10 34 26l24 94c3 9 1 19-3 27-5 8-13 14-22 16l-67 18c-1 13-3 27-5 40l60 35c16 10 22 32 12 48l-49 84c-6 11-18 18-30 18-7 0-13-2-18-5l-60-35c-10 9-21 17-33 25l18 67c5 19-7 38-25 43l-95 24c-2 1-5 1-8 1zm-33-211c-27 0-53-7-76-21-34-20-58-52-68-91-11-38-5-78 15-113 27-45 76-73 129-73 26 0 52 7 75 20 34 20 59 52 69 91 10 38 4 79-16 113-26 45-76 74-128 74z" fill="#ffcf59"/></g></svg>