<svg height="512" viewBox="0 0 64 64" width="512" xmlns="http://www.w3.org/2000/svg"><g id="Sales_Flat_Icon" data-name="Sales_Flat Icon"><g id="_01_Cash_Register" data-name="01_Cash Register"><path d="m52 22h-10v-7h10z" fill="#f2f2f2"/><path d="m45 15h-3v7h10v-3h-3a4 4 0 0 1 -4-4z" fill="#d5d8db"/><path d="m62 17h-30v-17h30z" fill="#ccc"/><path d="m36 0h-4v17h30v-4h-13a13 13 0 0 1 -13-13z" fill="#b6b8ba"/><path d="m58 13h-22v-9h22z" fill="#71abff"/><path d="m36.634 4h-.634v9h13a13 13 0 0 1 -12.366-9z" fill="#4285f4"/><path d="m64 64h-64l.005-14.5 3.095-29.5h57.8l3.1 29.652z" fill="#f4b400"/><path d="m64 64h-64v-15h64z" fill="#c62e26"/><path d="m12.26 20h-9.16l-3.043 29h63.875l-.832-8h-31.927a19.017 19.017 0 0 1 -18.913-21z" fill="#f29500"/><path d="m40 31h-6v-6h6z" fill="#db4437"/><path d="m37 25h-3v6h6v-3a3 3 0 0 1 -3-3z" fill="#c62e26"/><path d="m48 31h-6v-6h6z" fill="#db4437"/><path d="m45 25h-3v6h6v-3a3 3 0 0 1 -3-3z" fill="#c62e26"/><path d="m56 31h-6v-6h6z" fill="#db4437"/><path d="m53 25h-3v6h6v-3a3 3 0 0 1 -3-3z" fill="#c62e26"/><path d="m40 39h-6v-6h6z" fill="#db4437"/><path d="m37 33h-3v6h6v-3a3 3 0 0 1 -3-3z" fill="#c62e26"/><path d="m48 39h-6v-6h6z" fill="#db4437"/><path d="m45 33h-3v6h6v-3a3 3 0 0 1 -3-3z" fill="#c62e26"/><path d="m56 39h-6v-6h6z" fill="#db4437"/><g fill="#c62e26"><path d="m53 33h-3v6h6v-3a3 3 0 0 1 -3-3z"/><path d="m40 47h-6v-6h6z"/><path d="m48 47h-6v-6h6z"/><path d="m56 47h-6v-6h6z"/></g><path d="m48 60h-32v-7h32z" fill="#f2f2f2"/><path d="m16 57h32v3h-32z" fill="#d5d8db"/><path d="m30 38h-24v-10h24z" fill="#db4437"/><path d="m13.126 28h-7.126v10h14.922a19.1 19.1 0 0 1 -7.796-10z" fill="#c62e26"/><path d="m8 32h20v2h-20z" fill="#ea5f59"/><path d="m26 34h-16v-31l4.806 3.6 3.2-4.276 3.157 4.276 4.837-3.586z" fill="#f2f2f2"/><path d="m13 18v-12.752l-3-2.248v31h16v-3a13 13 0 0 1 -13-13z" fill="#d5d8db"/><path d="m21 22h-6v-2h4v-2h-4v-6h6v2h-4v2h4z" fill="#f4b400"/><path d="m17 21h2v3h-2z" fill="#f4b400"/><path d="m17 10h2v3h-2z" fill="#f4b400"/><path d="m37 41h-3v6h6v-3a3 3 0 0 1 -3-3z" fill="#b21b18"/><path d="m45 41h-3v6h6v-3a3 3 0 0 1 -3-3z" fill="#b21b18"/><path d="m53 41h-3v6h6v-3a3 3 0 0 1 -3-3z" fill="#b21b18"/></g></g></svg>