<svg id="Layer_1" enable-background="new 0 0 64 64" viewBox="0 0 64 64" xmlns="http://www.w3.org/2000/svg"><g fill="#010101"><path d="m58.85 21.15h-9.83v-17.79c0-.54-.43-.97-.97-.97h-32.1c-.54 0-.97.43-.97.97v17.79h-9.83c-2.84 0-5.15 2.31-5.15 5.15v18.84c0 2.84 2.31 5.15 5.15 5.15h8.62l-.49 10.3c-.01.27.08.52.27.72.18.19.44.3.7.3h35.72c.27 0 .52-.11.71-.3.18-.19.28-.46.26-.72l-.6-10.29h8.5c2.84 0 5.15-2.31 5.15-5.15v-18.85c.01-2.84-2.3-5.15-5.14-5.15zm-41.93-16.82h30.15v16.82h-30.15zm-1.65 55.34.92-19.44h31.63l1.13 19.44zm46.79-14.53c0 1.77-1.44 3.21-3.21 3.21h-8.61l-.47-8.12h4.43c.54 0 .97-.43.97-.97s-.43-.97-.97-.97h-44.4c-.54 0-.97.43-.97.97s.43.97.97.97h4.44l-.38 8.12h-8.71c-1.77 0-3.22-1.44-3.22-3.21v-18.84c0-1.77 1.44-3.21 3.22-3.21h53.69c1.77 0 3.21 1.44 3.21 3.21v18.84z"/><path d="m21.89 47.59h20.45c.54 0 .97-.43.97-.97s-.43-.97-.97-.97h-20.45c-.54 0-.97.43-.97.97s.43.97.97.97z"/><path d="m42.34 52.33h-20.45c-.54 0-.97.43-.97.97s.43.97.97.97h20.45c.54 0 .97-.43.97-.97s-.43-.97-.97-.97z"/><path d="m9.8 25.91c-1.6 0-2.91 1.3-2.91 2.91 0 1.6 1.3 2.91 2.91 2.91s2.91-1.3 2.91-2.91c0-1.6-1.3-2.91-2.91-2.91zm0 3.88c-.53 0-.97-.44-.97-.97s.43-.97.97-.97.97.44.97.97c0 .54-.43.97-.97.97z"/><path d="m17.89 25.91c-1.6 0-2.91 1.3-2.91 2.91 0 1.6 1.3 2.91 2.91 2.91 1.6 0 2.91-1.3 2.91-2.91 0-1.6-1.31-2.91-2.91-2.91zm0 3.88c-.54 0-.97-.44-.97-.97s.43-.97.97-.97c.53 0 .97.44.97.97 0 .54-.43.97-.97.97z"/></g></svg>