<?xml version="1.0" encoding="iso-8859-1"?>
<!-- Generator: Adobe Illustrator 19.0.0, SVG Export Plug-In . SVG Version: 6.00 Build 0)  -->
<svg version="1.1" id="Capa_1" xmlns="http://www.w3.org/2000/svg" xmlns:xlink="http://www.w3.org/1999/xlink" x="0px" y="0px"
	 viewBox="0 0 512 512" style="enable-background:new 0 0 512 512;" xml:space="preserve">
<path style="fill:#FDB659;" d="M59.526,294.171h314.445c32.867,0,59.52-26.644,59.52-59.52c0-12.603-3.918-24.293-10.602-33.909
	c-10.75-15.479-28.654-25.611-48.918-25.611H59.526V294.171z"/>
<path style="fill:#FD9E28;" d="M59.526,294.171h314.445c32.867,0,59.52-26.644,59.52-59.52c0-12.603-3.918-24.293-10.602-33.909
	c-99.302,73.589-296.052,75.405-363.363,73.709V294.171z"/>
<circle style="fill:#FD8724;" cx="59.52" cy="234.649" r="59.52"/>
<circle style="fill:#FC5820;" cx="59.52" cy="234.649" r="33.523"/>
<path style="fill:#E3F4FF;" d="M59.526,175.127h314.445c32.867,0,59.52-26.644,59.52-59.52c0-12.603-3.918-24.293-10.602-33.909
	c-10.75-15.479-28.654-25.611-48.918-25.611H59.526V175.127z"/>
<path style="fill:#BDDFF4;" d="M59.526,175.127h314.445c32.867,0,59.52-26.644,59.52-59.52c0-12.603-3.918-24.293-10.602-33.909
	c-99.302,73.589-296.052,75.405-363.363,73.709V175.127z"/>
<circle style="fill:#ADC9E2;" cx="59.52" cy="115.609" r="59.52"/>
<circle style="fill:#84A1C0;" cx="59.52" cy="115.609" r="33.523"/>
<path style="fill:#1685FB;" d="M433.493,353.697c0,32.879-26.657,59.514-59.525,59.514H59.526V294.172h314.442
	c20.263,0,38.171,10.131,48.918,25.62C429.573,329.405,433.493,341.092,433.493,353.697z"/>
<g>
	<path style="fill:#4C60E1;" d="M433.493,353.697c0,32.879-26.657,59.514-59.525,59.514H229.936
		C205.99,340.239,126.623,306.518,125.673,306.15c-7.086-2.689-23.298-8.241-34.283-11.978h282.579
		c20.263,0,38.171,10.131,48.918,25.62C429.573,329.405,433.493,341.092,433.493,353.697z"/>
	<path style="fill:#4C60E1;" d="M59.526,413.216h314.445c32.867,0,59.52-26.644,59.52-59.52c0-12.603-3.918-24.293-10.602-33.909
		c-99.302,73.589-296.052,75.405-363.363,73.709V413.216z"/>
</g>
<circle style="fill:#364EC6;" cx="59.52" cy="353.699" r="59.52"/>
<circle style="fill:#2442B2;" cx="59.52" cy="353.699" r="33.523"/>
<path style="fill:#43A3F9;" d="M505.812,455.913H255.693c-3.323,0-6.011-2.645-6.137-5.965
	c-4.1-108.251-118.926-155.771-118.926-155.771h272.958c5.808,0,11.507,1.584,16.463,4.611
	c23.334,14.254,88.928,62.078,91.945,150.767C512.115,453.036,509.294,455.913,505.812,455.913z"/>
<path style="fill:#1685FB;" d="M505.812,455.913h-160.51c70.65-53.228,45.473-130.391,30.988-161.736h27.298
	c5.808,0,11.507,1.584,16.463,4.611c23.334,14.254,88.928,62.078,91.945,150.767C512.115,453.036,509.294,455.913,505.812,455.913z"
	/>
<g>
</g>
<g>
</g>
<g>
</g>
<g>
</g>
<g>
</g>
<g>
</g>
<g>
</g>
<g>
</g>
<g>
</g>
<g>
</g>
<g>
</g>
<g>
</g>
<g>
</g>
<g>
</g>
<g>
</g>
</svg>
