<svg height="414pt" viewBox="0 0 414 414" width="414pt" xmlns="http://www.w3.org/2000/svg"><path d="m414 207c0 114.324219-92.675781 207-207 207s-207-92.675781-207-207 92.675781-207 207-207 207 92.675781 207 207zm0 0" fill="#f0c48a"/><path d="m358.855469 235.921875v-57.84375h-41.746094c-2.644531-10.109375-6.652344-19.671875-11.804687-28.476563l29.523437-29.527343-40.902344-40.902344-29.527343 29.523437c-8.804688-5.152343-18.367188-9.160156-28.476563-11.804687v-41.746094h-57.84375v41.746094c-10.109375 2.648437-19.671875 6.652344-28.476563 11.804687l-29.527343-29.523437-40.902344 40.902344 29.523437 29.527343c-5.152343 8.804688-9.15625 18.367188-11.804687 28.476563h-41.746094v57.84375h41.746094c2.648437 10.109375 6.652344 19.671875 11.804687 28.476563l-29.523437 29.527343 40.902344 40.902344 29.527343-29.523437c8.804688 5.152343 18.367188 9.15625 28.476563 11.804687v41.746094h57.84375v-41.746094c10.109375-2.648437 19.671875-6.652344 28.476563-11.804687l29.527343 29.523437 40.902344-40.902344-29.523437-29.527343c5.152343-8.804688 9.160156-18.367188 11.808593-28.476563zm-151.855469 57.070313c-47.492188 0-85.992188-38.5-85.992188-85.992188s38.5-85.992188 85.992188-85.992188 85.992188 38.5 85.992188 85.992188-38.5 85.992188-85.992188 85.992188zm0 0" fill="#7babf1"/><path d="m263.113281 258.070312c0-7.761718-6.289062-14.050781-14.050781-14.050781h-84.128906c-7.757813 0-14.050782 6.289063-14.050782 14.050781v14.058594c15.0625 12.988282 34.664063 20.863282 56.113282 20.863282 21.453125 0 41.054687-7.875 56.117187-20.863282zm0 0" fill="#fd919e"/><path d="m235.921875 364.855469h-57.84375c-3.316406 0-6-2.683594-6-6v-37.207031c-7.414063-2.257813-14.59375-5.234376-21.445313-8.894532l-26.316406 26.316406c-1.125 1.125-2.652344 1.757813-4.242187 1.757813-1.59375 0-3.121094-.632813-4.246094-1.757813l-40.902344-40.902343c-1.125-1.125-1.753906-2.652344-1.753906-4.242188 0-1.59375.628906-3.117187 1.753906-4.242187l26.320313-26.320313c-3.660156-6.847656-6.636719-14.03125-8.894532-21.441406h-37.207031c-3.316406 0-6-2.6875-6-6v-57.847656c0-3.3125 2.683594-6 6-6h37.207031c2.257813-7.410157 5.234376-14.59375 8.894532-21.441407l-26.320313-26.316406c-2.339843-2.34375-2.339843-6.144531 0-8.488281l40.902344-40.902344c2.34375-2.339843 6.144531-2.339843 8.488281 0l26.316406 26.316407c6.847657-3.65625 14.03125-6.632813 21.441407-8.890626v-37.207031c0-3.316406 2.6875-6 6-6h57.847656c3.3125 0 6 2.683594 6 6v37.207031c7.414063 2.253907 14.59375 5.234376 21.445313 8.890626l26.316406-26.316407c2.34375-2.339843 6.140625-2.339843 8.484375 0l40.902343 40.902344c2.34375 2.34375 2.34375 6.144531 0 8.488281l-26.316406 26.316406c3.65625 6.851563 6.636719 14.03125 8.890625 21.441407h37.210938c3.3125 0 6 2.6875 6 6v57.847656c0 3.3125-2.6875 6-6 6h-37.210938c-2.253906 7.414063-5.230469 14.59375-8.890625 21.441406l26.316406 26.320313c2.34375 2.339844 2.34375 6.140625 0 8.484375l-40.902343 40.902343c-1.125 1.125-2.652344 1.757813-4.242188 1.757813-1.59375 0-3.117187-.632813-4.242187-1.757813l-26.320313-26.316406c-6.847656 3.65625-14.03125 6.636719-21.441406 8.890625v37.210938c0 3.316406-2.683594 6-6 6zm-51.84375-12h45.84375v-35.746094c0-2.726563 1.839844-5.113281 4.480469-5.800781 9.441406-2.472656 18.511718-6.238282 26.96875-11.183594 2.351562-1.378906 5.34375-.992188 7.273437.9375l25.28125 25.28125 32.417969-32.417969-25.28125-25.28125c-1.929688-1.929687-2.316406-4.917969-.9375-7.273437 4.945312-8.457032 8.710938-17.527344 11.183594-26.96875.6875-2.636719 3.074218-4.476563 5.800781-4.476563h35.746094v-45.847656h-35.746094c-2.726563 0-5.113281-1.839844-5.800781-4.480469-2.472656-9.4375-6.238282-18.511718-11.183594-26.964844-1.378906-2.355468-.992188-5.34375.9375-7.273437l25.28125-25.285156-32.417969-32.417969-25.28125 25.285156c-1.929687 1.929688-4.917969 2.3125-7.273437.9375-8.457032-4.949218-17.527344-8.710937-26.96875-11.183594-2.640625-.691406-4.480469-3.078124-4.480469-5.804687v-35.746094h-45.84375v35.746094c0 2.726563-1.839844 5.113281-4.480469 5.804687-9.441406 2.472657-18.511718 6.234376-26.96875 11.183594-2.351562 1.375-5.34375.992188-7.273437-.9375l-25.28125-25.285156-32.417969 32.417969 25.28125 25.285156c1.929688 1.929687 2.316406 4.917969.9375 7.273437-4.945312 8.453126-8.710938 17.523438-11.183594 26.964844-.6875 2.640625-3.074218 4.480469-5.800781 4.480469h-35.746094v45.847656h35.746094c2.726563 0 5.113281 1.839844 5.800781 4.476563 2.472656 9.441406 6.238282 18.515625 11.183594 26.96875 1.378906 2.355468.992188 5.34375-.9375 7.273437l-25.28125 25.28125 32.417969 32.417969 25.28125-25.28125c1.929687-1.929688 4.917969-2.316406 7.273437-.9375 8.457032 4.945312 17.527344 8.707031 26.96875 11.183594 2.640625.6875 4.480469 3.074218 4.480469 5.800781zm0 0" fill="#4c4372"/><path d="m207 224.980469c-16.628906 0-30.109375-13.480469-30.109375-30.109375v-15.140625c0-16.628907 13.480469-30.109375 30.109375-30.109375s30.109375 13.480468 30.109375 30.109375v15.140625c0 16.628906-13.480469 30.109375-30.109375 30.109375zm0 0" fill="#fff"/><g fill="#4c4372"><path d="m207 230.980469c-19.910156 0-36.109375-16.199219-36.109375-36.109375v-15.140625c0-19.910157 16.199219-36.109375 36.109375-36.109375s36.109375 16.199218 36.109375 36.109375v15.140625c0 19.910156-16.199219 36.109375-36.109375 36.109375zm0-75.359375c-13.292969 0-24.109375 10.816406-24.109375 24.113281v15.136719c0 13.292968 10.8125 24.109375 24.109375 24.109375s24.109375-10.816407 24.109375-24.109375v-15.136719c0-13.296875-10.816406-24.113281-24.109375-24.113281zm0 0"/><path d="m207 298.992188c-22.023438 0-43.34375-7.925782-60.035156-22.320313-1.320313-1.140625-2.082032-2.796875-2.082032-4.542969v-14.058594c0-11.054687 8.996094-20.050781 20.050782-20.050781h84.128906c11.054688 0 20.050781 8.996094 20.050781 20.050781v14.058594c0 1.742188-.757812 3.402344-2.082031 4.542969-16.6875 14.394531-38.007812 22.320313-60.03125 22.320313zm-50.113281-29.671876c14.179687 11.414063 31.871093 17.671876 50.113281 17.671876s35.933594-6.257813 50.113281-17.671876v-11.25c0-4.4375-3.609375-8.050781-8.050781-8.050781h-84.125c-4.441406 0-8.050781 3.613281-8.050781 8.050781zm106.226562 2.808594h.011719zm0 0"/><path d="m207 298.992188c-50.726562 0-91.992188-41.265626-91.992188-91.992188s41.265626-91.992188 91.992188-91.992188 91.992188 41.265626 91.992188 91.992188-41.265626 91.992188-91.992188 91.992188zm0-171.984376c-44.105469 0-79.992188 35.882813-79.992188 79.992188s35.882813 79.992188 79.992188 79.992188 79.992188-35.882813 79.992188-79.992188-35.886719-79.992188-79.992188-79.992188zm0 0"/><path d="m179.230469 294.167969c-3.3125 0-6-2.6875-6-6v-16.933594c0-3.3125 2.6875-6 6-6s6 2.6875 6 6v16.933594c0 3.3125-2.6875 6-6 6zm0 0"/><path d="m234.769531 294.167969c-3.3125 0-6-2.6875-6-6v-16.933594c0-3.3125 2.6875-6 6-6s6 2.6875 6 6v16.933594c0 3.3125-2.6875 6-6 6zm0 0"/></g></svg>