<svg id="Layer_1" viewBox="0 0 512 512" xmlns="http://www.w3.org/2000/svg" data-name="Layer 1"><g fill-rule="evenodd"><path d="m298.186 39.2h-271.793a17.475 17.475 0 0 0 -17.428 17.426v387.93a17.476 17.476 0 0 0 17.428 17.428h271.793a17.476 17.476 0 0 0 17.428-17.428v-387.93a17.475 17.475 0 0 0 -17.428-17.426z" fill="#00c3ff"/><path d="m315.614 435.929h-245.414a30.622 30.622 0 0 1 -30.572-30.571v-366.158h258.558a17.475 17.475 0 0 1 17.428 17.428z" fill="#00b0e6"/><path d="m70.2 0h203.33l85.886 85.886v319.472a17.474 17.474 0 0 1 -17.428 17.427h-271.788a17.474 17.474 0 0 1 -17.428-17.427v-387.93a17.475 17.475 0 0 1 17.428-17.428z" fill="#eaf6ff"/><path d="m273.53 0 85.886 85.886h-85.886z" fill="#d3dde6"/><path d="m441.893 369.1a95.257 95.257 0 1 1 -130.1-34.856 95.26 95.26 0 0 1 130.1 34.856z" fill="#fe0050"/><path d="m441.893 369.1a95.257 95.257 0 1 1 -164.982 95.27z" fill="#25c73b"/><path d="m344.582 425.292 52.138-80.436 7.781-12.037a95.345 95.345 0 0 1 50.127 86.819l-14.309.728z" fill="#ffc300"/></g><path d="m99.456 284.15h34.011v70.178h-34.011z" fill="#fe0050"/><path d="m133.466 225.513h34.011v128.815h-34.011z" fill="#00c3ff"/><path d="m167.477 254.569h34.011v99.759h-34.011z" fill="#25c73b"/><path d="m201.487 225.513h34.011v128.815h-34.011z" fill="#ffc300"/><path d="m159.55 183.43a7.2 7.2 0 0 1 0-14.4h160.231a7.2 7.2 0 1 1 0 14.4zm-67.147 0a7.2 7.2 0 0 1 0-14.4h33.136a7.2 7.2 0 0 1 0 14.4zm0-42.667a7.2 7.2 0 0 1 0-14.4h33.136a7.2 7.2 0 1 1 0 14.4zm0-42.637a7.2 7.2 0 0 1 0-14.4h126.366a7.2 7.2 0 1 1 0 14.4zm0-42.666a7.2 7.2 0 0 1 0-14.4h126.366a7.2 7.2 0 1 1 0 14.4zm67.147 85.3a7.2 7.2 0 1 1 0-14.4h160.231a7.2 7.2 0 1 1 0 14.4z" fill="#d3dde6"/><path d="m298.069 271.647a7.175 7.175 0 0 1 -8.16-11.8l64.757-44.561a7.172 7.172 0 0 1 8.743.437l52.138 44.474 70.323-62.426a7.175 7.175 0 0 1 9.5 10.754l-74.724 66.3a7.138 7.138 0 0 1 -9.676.32l-52.72-44.939z" fill="#214c5f"/><path d="m414.585 256.434a13.3 13.3 0 1 1 -12.211 14.309 13.293 13.293 0 0 1 12.211-14.309z" fill="#ffc300" fill-rule="evenodd"/><path d="m483.684 186.606a17.922 17.922 0 1 1 -16.437 19.294 17.925 17.925 0 0 1 16.437-19.293z" fill="#fe0050" fill-rule="evenodd"/><path d="m358.367 208.493a13.3 13.3 0 1 1 -12.211 14.307 13.293 13.293 0 0 1 12.211-14.309z" fill="#25c73b" fill-rule="evenodd"/><path d="m292.94 252.47a13.316 13.316 0 1 1 -12.211 14.339 13.313 13.313 0 0 1 12.211-14.339z" fill="#00c3ff" fill-rule="evenodd"/><path d="m63.58 394.05v-387.93a17.255 17.255 0 0 1 .758-5.1 17.471 17.471 0 0 0 -11.57 16.408v387.93a17.474 17.474 0 0 0 17.432 17.427h194.121a97.619 97.619 0 0 1 -.029-11.307h-183.284a17.476 17.476 0 0 1 -17.428-17.428z" fill="#d3dde6" fill-rule="evenodd"/><path d="m99.456 284.15h9.821v70.178h-9.821z" fill="#e50048"/><path d="m133.466 225.513h9.792v128.815h-9.792z" fill="#00b0e6"/><path d="m167.593 254.569h9.821v99.759h-9.821z" fill="#21b335"/><path d="m201.487 225.513h9.792v128.815h-9.792z" fill="#e6b000"/><path d="m83.048 361.526a7.2 7.2 0 1 1 0-14.4h168.887a7.2 7.2 0 0 1 0 14.4z" fill="#214c5f"/><path d="m389.2 507.214a95.294 95.294 0 0 1 -92.764-45.23c-.35-.583-.67-1.166-1.02-1.749-.962-1.632-1.836-3.323-2.681-5.013l-11.687 6.762-4.138 2.389a95.279 95.279 0 0 0 112.29 42.841z" fill="#21b335" fill-rule="evenodd"/><path d="m285.537 435.929a92.808 92.808 0 0 1 -2.36-13.144 95.417 95.417 0 0 1 32.437-82.243 97.169 97.169 0 0 1 32.5-18.418 94.2 94.2 0 0 0 -32.5 10.025c-1.283.67-2.565 1.37-3.818 2.1a95.138 95.138 0 0 0 -47.5 77.231 97.619 97.619 0 0 0 .029 11.307 96.014 96.014 0 0 0 1.778 13.144 94.818 94.818 0 0 0 9.471 26.055c.437.786.9 1.573 1.341 2.389l4.138-2.389 11.687-6.762a94.885 94.885 0 0 1 -7.2-19.293z" fill="#e50048" fill-rule="evenodd"/><path d="m357.522 417.831 46.134-71.2 6.732-10.375c-1.923-1.224-3.876-2.361-5.887-3.439l-7.781 12.037-37.3 57.558-12.794 19.73-2.04 3.148 8.364-.437z" fill="#e6b000" fill-rule="evenodd"/></svg>