<svg height="512" viewBox="0 0 32 32" width="512" xmlns="http://www.w3.org/2000/svg"><g id="User"><path d="m16 14a7 7 0 1 0 -7-7 7.00818 7.00818 0 0 0 7 7zm0-12a5 5 0 1 1 -5 5 5.00588 5.00588 0 0 1 5-5z"/><path d="m28.95117 26.75146a12.9806 12.9806 0 0 0 -12.95117-10.75146 12.9806 12.9806 0 0 0 -12.95117 10.75146 4.48672 4.48672 0 0 0 1.05078 3.58985 4.82372 4.82372 0 0 0 3.66602 1.65869h16.46875a4.82372 4.82372 0 0 0 3.666-1.65869 4.48672 4.48672 0 0 0 1.05079-3.58985zm-2.56543 2.28418a2.8284 2.8284 0 0 1 -2.15136.96436h-16.46875a2.82841 2.82841 0 0 1 -2.15137-.96436 2.45521 2.45521 0 0 1 -.58692-1.98828 10.96926 10.96926 0 0 1 10.97266-9.04736 10.96926 10.96926 0 0 1 10.97266 9.04736 2.45521 2.45521 0 0 1 -.58692 1.98828z"/></g></svg>