<svg width="300" height="300" viewBox="0 0 300 300" fill="none" xmlns="http://www.w3.org/2000/svg">
<path d="M288.104 208.764L225.373 146.034L288.104 83.2836C300.049 71.3181 300.049 51.9586 288.104 39.9931L261.07 12.9598C255.087 6.98621 247.256 4 239.424 4C231.592 4 223.762 6.98621 217.779 12.9598L155.048 75.7098L92.2989 12.9598C86.3152 6.98621 78.4845 4 70.6533 4C62.8226 4 54.9914 6.98621 49.0089 12.9598L21.975 39.9931C10.0083 51.9586 10.0083 71.3181 21.975 83.2836L84.725 146.034L21.975 208.764C10.0083 220.73 10.0083 240.089 21.975 252.055L49.0089 279.089C54.9908 285.072 62.8226 288.062 70.6533 288.062C78.4851 288.062 86.3152 285.072 92.2989 279.088L155.049 216.359L217.779 279.089C223.762 285.072 231.592 288.062 239.424 288.062C247.256 288.062 255.087 285.072 261.07 279.088L288.104 252.054C300.049 240.088 300.049 220.73 288.104 208.764ZM185.031 225.86L231.104 260.562C229.538 262.128 240.637 263.889 239.424 263.889C238.212 263.889 236.423 247.066 234.857 245.5L155.051 182.175L28.4749 225.86C26.909 227.425 71.8659 263.889 70.6545 263.889C69.4419 263.889 76.7713 231.976 75.2054 230.41L39.0673 234.961C145.475 191.748 37.173 231.622 37.173 230.41C37.173 229.198 37.5026 227.423 39.0655 225.86L174.031 187.031L43.1038 46.5625C41.539 44.9972 37.173 62.8506 37.173 61.6386C37.173 60.4266 37.5026 58.653 39.0685 57.0871L152.12 173.562C153.688 171.998 69.4366 28.1731 70.6545 28.1731C71.8724 28.1731 66.0509 38.442 67.6038 39.9931L155.051 179.031L234.857 30.0669C236.425 28.5022 238.206 28.1731 239.424 28.1731C240.642 28.1731 242.424 28.5016 243.976 30.0527L231.104 22.5312L221.104 70.5625C223.618 73.0806 241.926 20.025 239.424 22.5312L135.031 120.531L155.048 187.031C157.562 189.549 187.53 223.357 185.031 225.86Z" fill="white"/>
</svg>
