<svg height="512pt" viewBox="0 0 512 512" width="512pt" xmlns="http://www.w3.org/2000/svg"><path d="m145.296875 448.804688c106.089844 61.25 241.746094 24.902343 302.996094-81.1875 61.25-106.089844 24.902343-241.746094-81.1875-303-106.089844-61.25-241.746094-24.902344-302.996094 81.1875-61.253906 106.089843-24.902344 241.746093 81.1875 303zm0 0" fill="#576574"/><path d="m215.976562 420.320312c-90.359374-52.171874-121.316406-167.710937-69.148437-258.066406 52.167969-90.359375 167.707031-121.316406 258.0625-69.148437 1.078125.621093 2.136719 1.257812 3.195313 1.894531-12.195313-11.433594-25.878907-21.664062-40.980469-30.382812-106.089844-61.25-241.746094-24.902344-302.996094 81.1875-61.253906 106.089843-24.902344 241.746093 81.1875 303 86.738281 50.078124 193.234375 34.902343 262.675781-30.277344-56.972656 34.269531-130.34375 37.386718-191.996094 1.792968zm0 0" fill="#3e4b5a"/><path d="m256.296875 175.644531c-40.050781 0-73.382813 28.699219-80.601563 66.648438l-.023437 30.761719c4.347656 22.976562 18.273437 42.566406 37.472656 54.460937h86.304688c23.351562-14.46875 38.917969-40.3125 38.917969-69.804687 0-45.324219-36.742188-82.066407-82.070313-82.066407zm0 0" fill="#3e4b5a"/><path d="m209.242188 257.710938c0-39.316407 27.652343-72.15625 64.5625-80.175782-5.640626-1.226562-11.496094-1.890625-17.507813-1.890625-40.050781 0-73.382813 28.699219-80.601563 66.648438l-.023437 30.761719c4.347656 22.976562 18.273437 42.566406 37.472656 54.460937h35.011719c-23.351562-14.46875-38.914062-40.3125-38.914062-69.804687zm0 0" fill="#374451"/><path d="m256.34375 38.972656v47.59375c30.496094 0 59.757812 8.148438 85.054688 22.789063l23.796874-41.214844c-33.765624-19.496094-71.445312-29.167969-108.851562-29.167969zm0 0" fill="#feca57"/><path d="m147.492188 68.140625 23.796874 41.214844c25.175782-14.570313 54.539063-22.816407 85.054688-22.789063v-47.59375c-39.222656 0-76.707031 10.609375-108.851562 29.167969zm0 0" fill="#7bb71d"/><path d="m253.261719 39c-38.101563.539062-74.46875 11.070312-105.769531 29.140625l9.089843 15.738281c28.316407-22.785156 61.621094-38.035156 96.679688-44.878906zm0 0" fill="#71a517"/><path d="m171.289062 109.355469-23.796874-41.21875c-34.359376 19.839843-61.292969 47.835937-79.683594 79.6875l41.21875 23.796875c24.769531-42.984375 60.542968-60.890625 62.261718-62.265625zm0 0" fill="#8dce3a"/><path d="m103.589844 145.804688c14.125-24.46875 32.21875-45.21875 52.992187-61.925782l-9.089843-15.738281c-34.359376 19.835937-61.292969 47.832031-79.683594 79.683594l26.71875 15.425781c2.746094-5.890625 5.75-11.710938 9.0625-17.445312zm0 0" fill="#7bb71d"/><path d="m38.640625 256.675781h47.59375c-.046875-48.851562 20.972656-80.894531 22.792969-85.054687l-41.21875-23.796875c-18.742188 32.464843-29.167969 69.890625-29.167969 108.851562zm0 0" fill="#54a0ff"/><path d="m94.527344 163.25-26.71875-15.425781c-18.742188 32.464843-29.167969 69.890625-29.167969 108.851562h35.199219c-.023438-31.511719 6.683594-63.378906 20.6875-93.425781zm0 0" fill="#338def"/><path d="m403.664062 171.621094 41.21875-23.796875c-19.390624-33.582031-47.039062-60.835938-79.6875-79.683594l-23.796874 41.214844c1.003906.894531 37.261718 18.875 62.265624 62.265625zm0 0" fill="#f4b537"/><path d="m403.664062 171.621094c14.917969 25.777344 22.820313 55.226562 22.789063 85.054687h47.59375c0-38.679687-10.34375-76.246093-29.164063-108.851562zm0 0" fill="#ff6b6b"/><path d="m86.234375 256.675781h-47.59375c0 38.425781 10.160156 75.929688 29.167969 108.851563l41.21875-23.796875c-14.484375-25.039063-22.792969-54.246094-22.792969-85.054688zm0 0" fill="#8ac2ff"/><path d="m73.839844 256.675781h-35.199219c0 38.425781 10.160156 75.929688 29.167969 108.851563l26.679687-15.40625c-13.527343-29.207032-20.621093-61.136719-20.648437-93.445313zm0 0" fill="#54a0ff"/><path d="m426.453125 256.675781c0 30.117188-7.957031 59.410157-22.789063 85.054688l41.21875 23.796875c18.609376-32.242188 29.164063-69.683594 29.164063-108.851563zm0 0" fill="#ee5253"/><path d="m444.867188 365.519531-60.023438-34.636719c-4.957031-2.863281-10.582031-4.367187-16.308594-4.367187h-224.40625c-5.726562 0-11.351562 1.507813-16.3125 4.371094l-60.007812 34.640625-.078125.019531c18.46875 32.070313 45.367187 59.863281 79.726562 79.699219 104.140625 60.125 237.304688 24.433594 297.410157-79.726563zm0 0" fill="#54a0ff"/><path d="m184.777344 448.804688c-41.113282-23.734376-71.742188-58.648438-90.285156-98.679688l-26.683594 15.402344-.078125.019531c18.46875 32.070313 45.367187 59.863281 79.726562 79.699219 33.292969 19.222656 69.554688 28.636718 105.445313 29.164062-23.355469-4.589844-46.363282-13.042968-68.125-25.605468zm0 0" fill="#338def"/><path d="m339.351562 359.238281h-166.105468c-6.546875 0-11.898438 5.355469-11.898438 11.898438v29.417969c0 6.546874 5.351563 11.898437 11.898438 11.898437h166.105468c6.542969 0 11.898438-5.351563 11.898438-11.898437v-29.417969c0-6.542969-5.355469-11.898438-11.898438-11.898438zm0 0" fill="#338def"/><path d="m226.007812 400.554688v-29.417969c0-6.542969 5.351563-11.898438 11.898438-11.898438h-64.660156c-6.542969 0-11.898438 5.355469-11.898438 11.898438v29.417969c0 6.546874 5.351563 11.898437 11.898438 11.898437h64.660156c-6.546875 0-11.898438-5.351563-11.898438-11.898437zm0 0" fill="#167ddb"/><path d="m228.007812 257.710938c0-5.632813 1.542969-10.898438 4.21875-15.417969h-95.359374c-8.496094 0-15.382813 6.886719-15.382813 15.378906 0 8.496094 6.886719 15.382813 15.382813 15.382813h95.316406c-2.652344-4.5-4.175782-9.742188-4.175782-15.34375zm0 0" fill="#ff6b6b"/><path d="m160.316406 257.675781c0-8.496093 6.886719-15.382812 15.378906-15.382812h-38.828124c-8.496094 0-15.382813 6.886719-15.382813 15.382812 0 8.492188 6.886719 15.378907 15.382813 15.378907h38.828124c-8.492187 0-15.378906-6.886719-15.378906-15.378907zm0 0" fill="#ee5253"/><path d="m286.589844 257.710938c0 16.730468-13.5625 30.292968-30.292969 30.292968-16.726563 0-30.289063-13.5625-30.289063-30.292968 0-16.730469 13.5625-30.292969 30.289063-30.292969 16.730469 0 30.292969 13.5625 30.292969 30.292969zm0 0" fill="#ee5253"/><path d="m259.386719 257.710938c0-10.5625 5.410156-19.855469 13.601562-25.277344-4.785156-3.167969-10.519531-5.015625-16.6875-5.015625-16.730469 0-30.292969 13.5625-30.292969 30.292969 0 16.730468 13.5625 30.292968 30.292969 30.292968 6.167969 0 11.902344-1.851562 16.6875-5.015625-8.191406-5.421875-13.601562-14.714843-13.601562-25.277343zm0 0" fill="#d83941"/><path d="m256.308594 8.210938c-137.242188 0-248.5 111.257812-248.5 248.5 0 137.242187 111.257812 248.5 248.5 248.5 137.242187 0 248.5-111.257813 248.5-248.5 0-137.242188-111.257813-248.5-248.5-248.5zm-107.597656 435.253906c-103.140626-59.550782-138.476563-191.433594-78.929688-294.574219 59.546875-103.144531 191.433594-138.480469 294.574219-78.933594 103.140625 59.550781 138.480469 191.433594 78.929687 294.574219-59.546875 103.144531-191.433594 138.480469-294.574218 78.933594zm0 0" fill="#e4eaf8"/><path d="m37.808594 256.710938c0-132.203126 103.246094-240.277344 233.5-248.035157-4.964844-.296875-9.960938-.464843-15-.464843-137.242188 0-248.5 111.257812-248.5 248.5 0 137.242187 111.257812 248.5 248.5 248.5 5.039062 0 10.035156-.167969 15-.464844-130.253906-7.757813-233.5-115.832032-233.5-248.035156zm0 0" fill="#c7d2e5"/><path d="m256 0c-141.492188 0-256 114.496094-256 256 0 68.378906 26.628906 132.667969 74.980469 181.019531 48.351562 48.351563 112.640625 74.980469 181.019531 74.980469 141.492188 0 256-114.496094 256-256 0-141.492188-114.496094-256-256-256zm0 497c-132.886719 0-241-108.113281-241-241s108.113281-241 241-241 241 108.113281 241 241-108.113281 241-241 241zm0 0"/><path d="m178.152344 44.671875c-108.03125 39.585937-170.171875 155.820313-139.683594 269.613281 42.003906 156.746094 232.234375 219.4375 359.019531 117.078125 200.199219-161.664062 15.785157-473.289062-219.335937-386.691406zm263.535156 309.816406-28.21875-16.292969c12.066406-23.082031 18.914062-48.644531 20.019531-74.730468h32.539063c-1.0625 31.3125-9.078125 62.285156-24.339844 91.023437zm-363.832031 13.007813 53.402343-30.824219c3.8125-2.203125 8.160157-3.367187 12.5625-3.367187h224.410157c4.402343 0 8.746093 1.164062 12.558593 3.363281l53.398438 30.816406c-82.601562 132.136719-275.132812 130.234375-356.332031.011719zm66.683593-289.648438 16.292969 28.21875c-26.753906 16.945313-44.089843 37.949219-54.722656 54.675782l-28.246094-16.308594c16.8125-26.847656 39.519531-49.660156 66.675781-66.585938zm210.011719-7.515625-16.28125 28.199219c-23.070312-12.066406-48.636719-18.914062-74.734375-20.019531v-32.546875c31.0625 1.0625 62.140625 9.023437 91.015625 24.367187zm79.578125 74.148438-28.164062 16.261719c-13.980469-21.980469-33.066406-41.078126-54.703125-54.714844l16.273437-28.183594c27.152344 16.984375 49.710938 39.566406 66.59375 66.636719zm-45.84375 179.195312c-6.089844-3.515625-13.023437-5.371093-20.054687-5.371093h-47.953125c11.519531-11.914063 19.683594-26.902344 23.230468-43.210938.878907-4.046875-1.6875-8.042969-5.738281-8.921875-4.039062-.875-8.042969 1.6875-8.921875 5.734375-4.109375 18.910156-15.6875 35.707031-31.894531 46.398438h-81.925781c-14.253906-9.398438-24.847656-23.398438-30.023438-39.460938h40.890625c21.890625 28.746094 67.890625 13.101562 67.890625-22.84375 0-36.03125-45.925781-51.535156-67.835937-22.917969h-40.921875c9.78125-30.410156 38.304687-51.648437 70.964844-51.648437 34.824218 0 65.464843 24.667968 72.851562 58.65625.878906 4.050781 4.875 6.613281 8.921875 5.738281 4.046875-.878906 6.613281-4.875 5.734375-8.921875-8.796875-40.488281-44.855469-70.476562-87.507812-70.476562-40.855469 0-76.296876 27.683593-86.566407 66.652343h-32.867187c-12.617188 0-22.878906 10.265625-22.878906 22.878907 0 12.617187 10.261718 22.882812 22.878906 22.882812h32.824218c3.925782 14.878906 11.660157 28.46875 22.296876 39.457031h-47.859376c-7.03125 0-13.96875 1.859375-20.0625 5.375l-12.128906 7.003907c-39.976562-77.1875-11.671875-171.390626 61.640625-214.636719 43.234375-25.515625 81.101563-22.113281 82.769531-22.6875 122.742188 0 199.65625 130.667969 144.402344 237.332031zm-169.25-75.59375c-1.179687 5.597657-1.046875 10.597657-.015625 15.761719-17.539062 0-64.964843 0-82.464843 0-4.34375 0-7.878907-3.535156-7.878907-7.882812 0-4.34375 3.535157-7.878907 7.878907-7.878907zm36.957032-14.875c12.566406 0 22.789062 10.226563 22.789062 22.792969 0 27.84375-41.832031 31.445312-45.398438 2.839844-1.71875-13.699219 9.042969-25.632813 22.609376-25.632813zm-209.992188 30.257813h32.585938c1.105468 26.085937 7.953124 51.648437 20.019531 74.730468l-28.226563 16.296876c-14.890625-28.171876-23.207031-59.300782-24.378906-91.027344zm24.363281-106.039063 28.339844 16.363281c-12.296875 23.753907-19.050781 48.824219-20.125 74.671876h-32.601563c1.082032-31.011719 9.203126-62.414063 24.386719-91.035157zm343.105469 16.304688c17.757812-10.253907 15.375-8.875 28.140625-16.246094 14.84375 28.078125 23.199219 59.238281 24.386719 90.976563h-32.503906c-1.085938-26.058594-7.933594-51.621094-20.023438-74.730469zm-164.933594-95.222657c-26.0625 1.085938-51.628906 7.933594-74.734375 20.023438-3.046875-5.285156-12.039062-20.855469-16.261719-28.171875 28.085938-14.839844 59.253907-23.183594 90.996094-24.363281zm0 0"/><path d="m339.042969 351.027344h-166.105469c-10.695312 0-19.398438 8.703125-19.398438 19.398437v29.417969c0 10.695312 8.703126 19.398438 19.398438 19.398438h65.5625c4.144531 0 7.5-3.355469 7.5-7.5 0-4.140626-3.355469-7.5-7.5-7.5h-65.5625c-2.382812 0-4.398438-2.015626-4.398438-4.398438v-29.417969c0-2.382812 2.015626-4.398437 4.398438-4.398437h166.105469c2.386719 0 4.398437 2.015625 4.398437 4.398437v29.417969c0 2.382812-2.015625 4.398438-4.398437 4.398438h-65.542969c-4.140625 0-7.5 3.359374-7.5 7.5 0 4.144531 3.359375 7.5 7.5 7.5h65.542969c10.699219 0 19.402343-8.703126 19.402343-19.398438v-29.417969c0-10.695312-8.703124-19.398437-19.402343-19.398437zm0 0"/></svg>