<svg width="1000" height="1000" viewBox="0 0 1000 1000" fill="none" xmlns="http://www.w3.org/2000/svg">
<g clip-path="url(#clip0_339_4688)">
<mask id="mask0_339_4688" style="mask-type:luminance" maskUnits="userSpaceOnUse" x="0" y="0" width="1000" height="1000">
<path d="M1000 0H0V1000H1000V0Z" fill="white"/>
</mask>
<g mask="url(#mask0_339_4688)">
<path d="M500 1000C776.143 1000 1000 776.143 1000 500C1000 223.857 776.143 0 500 0C223.857 0 0 223.857 0 500C0 776.143 223.857 1000 500 1000Z" fill="white"/>
<path fill-rule="evenodd" clip-rule="evenodd" d="M641.592 470.236H482.389C476.437 470.236 471.582 465.381 471.582 459.43C471.582 453.441 476.437 448.621 482.389 448.621H641.592C647.58 448.621 652.398 453.441 652.398 459.43C652.398 465.381 647.58 470.236 641.592 470.236ZM733.541 819.998H266.459C260.506 819.998 255.652 815.18 255.652 809.191V235.596C255.652 229.607 260.506 224.789 266.459 224.789H358.904V190.809C358.904 184.856 363.723 180.002 369.711 180.002H630.324C636.277 180.002 641.131 184.856 641.131 190.809V224.789H733.541C739.529 224.789 744.348 229.607 744.348 235.596V809.191C744.348 815.18 739.529 819.998 733.541 819.998ZM358.904 246.404H277.266V798.385H722.734V246.404H641.131V269.541H688.754C694.742 269.541 699.561 274.397 699.561 280.35V764.439C699.561 770.393 694.742 775.211 688.754 775.211H311.246C305.258 775.211 300.439 770.393 300.439 764.439V280.35C300.439 274.397 305.258 269.541 311.246 269.541H358.904V246.404ZM322.053 753.633H677.982V291.156H322.053V753.633ZM380.52 269.541H619.516V201.615H380.52V269.541ZM618.17 339.098H381.83C375.877 339.098 371.021 334.277 371.021 328.291C371.021 322.338 375.877 317.482 381.83 317.482H618.17C624.123 317.482 628.977 322.338 628.977 328.291C628.977 334.277 624.123 339.098 618.17 339.098ZM440.082 727.305H358.408C352.42 727.305 347.602 722.451 347.602 716.498V634.789C347.602 628.836 352.42 623.98 358.408 623.98H440.082C446.035 623.98 450.889 628.836 450.889 634.789V716.498C450.889 722.451 446.035 727.305 440.082 727.305ZM369.215 705.691H429.275V645.596H369.215V705.691ZM562.008 645.596H482.389C476.437 645.596 471.582 640.777 471.582 634.789C471.582 628.836 476.437 623.98 482.389 623.98H562.008C567.961 623.98 572.814 628.836 572.814 634.789C572.814 640.777 567.961 645.596 562.008 645.596ZM641.592 686.451H482.389C476.437 686.451 471.582 681.596 471.582 675.643C471.582 669.689 476.437 664.836 482.389 664.836H641.592C647.58 664.836 652.398 669.689 652.398 675.643C652.398 681.596 647.58 686.451 641.592 686.451ZM641.592 727.305H482.389C476.437 727.305 471.582 722.451 471.582 716.498C471.582 710.51 476.437 705.691 482.389 705.691H641.592C647.58 705.691 652.398 710.51 652.398 716.498C652.398 722.451 647.58 727.305 641.592 727.305ZM440.082 598.752H358.408C352.42 598.752 347.602 593.934 347.602 587.945V506.272C347.602 500.318 352.42 495.465 358.408 495.465H440.082C446.035 495.465 450.889 500.318 450.889 506.272V587.945C450.889 593.934 446.035 598.752 440.082 598.752ZM369.215 577.139H429.275V517.078H369.215V577.139ZM562.008 517.078H482.389C476.437 517.078 471.582 512.26 471.582 506.272C471.582 500.318 476.437 495.465 482.389 495.465H562.008C567.961 495.465 572.814 500.318 572.814 506.272C572.814 512.26 567.961 517.078 562.008 517.078ZM641.592 557.934H482.389C476.437 557.934 471.582 553.08 471.582 547.127C471.582 541.139 476.437 536.318 482.389 536.318H641.592C647.58 536.318 652.398 541.139 652.398 547.127C652.398 553.08 647.58 557.934 641.592 557.934ZM641.592 598.752H482.389C476.437 598.752 471.582 593.934 471.582 587.945C471.582 581.992 476.437 577.139 482.389 577.139H641.592C647.58 577.139 652.398 581.992 652.398 587.945C652.398 593.934 647.58 598.752 641.592 598.752ZM440.082 470.236H358.408C352.42 470.236 347.602 465.381 347.602 459.43V377.756C347.602 371.768 352.42 366.947 358.408 366.947H440.082C446.035 366.947 450.889 371.768 450.889 377.756V459.43C450.889 465.381 446.035 470.236 440.082 470.236ZM369.215 448.621H429.275V388.563H369.215V448.621ZM562.008 388.563H482.389C476.437 388.563 471.582 383.707 471.582 377.756C471.582 371.768 476.437 366.947 482.389 366.947H562.008C567.961 366.947 572.814 371.768 572.814 377.756C572.814 383.707 567.961 388.563 562.008 388.563ZM641.592 429.381H482.389C476.437 429.381 471.582 424.563 471.582 418.574C471.582 412.621 476.437 407.768 482.389 407.768H641.592C647.58 407.768 652.398 412.621 652.398 418.574C652.398 424.563 647.58 429.381 641.592 429.381Z" fill="black"/>
</g>
</g>
<defs>
<clipPath id="clip0_339_4688">
<rect width="1000" height="1000" fill="white"/>
</clipPath>
</defs>
</svg>
