<svg id="Layer_1" enable-background="new 0 0 66 66" height="512" viewBox="0 0 66 66" width="512" xmlns="http://www.w3.org/2000/svg"><g><g><path d="m54.55 45.73c0 3.59-1.47 6.84-3.86 9.18v3.66h-8.33c-.22.01-.45.01-.66.01-7.08 0-12.83-5.75-12.83-12.85 0-7.08 5.75-12.83 12.83-12.83h8.99v3.67c2.39 2.32 3.86 5.57 3.86 9.16z" fill="#fff"/><path d="m41.7 59.33c-7.49 0-13.58-6.1-13.58-13.6 0-7.49 6.09-13.58 13.58-13.58h8.99c.41 0 .75.34.75.75v3.36c2.49 2.53 3.86 5.89 3.86 9.47s-1.37 6.94-3.86 9.49v3.35c0 .41-.34.75-.75.75h-8.33c-.18 0-.43.01-.66.01zm0-25.68c-6.66 0-12.08 5.42-12.08 12.08 0 6.67 5.42 12.1 12.08 12.1.21 0 .41 0 .61-.01h7.62v-2.92c0-.2.08-.4.23-.54 2.34-2.29 3.63-5.36 3.63-8.64 0-3.29-1.29-6.35-3.63-8.62-.15-.14-.23-.33-.23-.54v-2.92h-8.23z" fill="#241c70"/></g><g><path d="m63.53 45.73c0 7.1-5.75 12.85-12.85 12.85-7.08 0-12.83-5.75-12.83-12.85 0-7.08 5.75-12.83 12.83-12.83 7.1 0 12.85 5.74 12.85 12.83z" fill="#f8c257"/></g><g><path d="m41.04 20.23c0 3.59-1.47 6.84-3.86 9.18v3.66h-8.33c-.22.01-.45.01-.66.01-7.08 0-12.83-5.75-12.83-12.85 0-7.08 5.75-12.83 12.83-12.83h8.99v3.67c2.39 2.32 3.86 5.57 3.86 9.16z" fill="#fff"/><path d="m28.19 33.83c-7.49 0-13.58-6.1-13.58-13.6 0-7.49 6.09-13.58 13.58-13.58h8.99c.41 0 .75.34.75.75v3.36c2.49 2.54 3.86 5.89 3.86 9.47s-1.37 6.94-3.86 9.49v3.35c0 .41-.34.75-.75.75h-8.33c-.18.01-.43.01-.66.01zm0-25.68c-6.66 0-12.08 5.42-12.08 12.08 0 6.67 5.42 12.1 12.08 12.1.21 0 .42 0 .62-.01h7.62v-2.91c0-.2.08-.4.23-.54 2.34-2.29 3.63-5.36 3.63-8.64 0-3.29-1.29-6.35-3.63-8.62-.15-.14-.23-.34-.23-.54v-2.92z" fill="#241c70"/></g><g><path d="m50.03 20.23c0 7.1-5.75 12.85-12.85 12.85-7.08 0-12.83-5.75-12.83-12.85 0-7.08 5.75-12.83 12.83-12.83 7.1 0 12.85 5.75 12.85 12.83z" fill="#7cedcb"/></g><g><path d="m28.15 45.73c0 3.59-1.47 6.84-3.86 9.18v3.66h-8.33c-.22.01-.45.01-.66.01-7.08 0-12.83-5.75-12.83-12.85 0-7.08 5.75-12.83 12.83-12.83h8.99v3.67c2.38 2.32 3.86 5.57 3.86 9.16z" fill="#fff"/><path d="m15.3 59.33c-7.49 0-13.58-6.1-13.58-13.6 0-7.49 6.09-13.58 13.58-13.58h8.99c.41 0 .75.34.75.75v3.36c2.49 2.53 3.86 5.89 3.86 9.47s-1.37 6.94-3.86 9.49v3.35c0 .41-.34.75-.75.75h-8.33c-.18 0-.43.01-.66.01zm0-25.68c-6.66 0-12.08 5.42-12.08 12.08 0 6.67 5.42 12.1 12.08 12.1.2 0 .41 0 .61-.01h7.62v-2.92c0-.2.08-.4.23-.54 2.34-2.29 3.63-5.36 3.63-8.64 0-3.29-1.29-6.35-3.63-8.62-.15-.14-.23-.33-.23-.54v-2.92h-8.23z" fill="#241c70"/></g><g><path d="m37.13 45.73c0 7.1-5.75 12.85-12.85 12.85-7.08 0-12.83-5.75-12.83-12.85 0-7.08 5.75-12.83 12.83-12.83 7.1 0 12.85 5.74 12.85 12.83z" fill="#638df9"/></g><g opacity=".08"><path d="m63.54 45.73c0 7.1-5.75 12.84-12.85 12.84-4.55 0-8.56-2.37-10.83-5.96 2.27 2.07 5.31 3.34 8.63 3.34 7.09 0 12.84-5.75 12.84-12.85 0-2.51-.73-4.86-1.98-6.84 2.58 2.34 4.19 5.71 4.19 9.47z"/></g><g opacity=".08"><path d="m50.03 20.23c0 4.53-2.34 8.51-5.88 10.8-.82.53-1.7.96-2.63 1.3-1.36.48-2.82.75-4.34.75-4.57 0-8.57-2.39-10.85-5.99 2.28 2.08 5.32 3.36 8.65 3.36 7.1 0 12.85-5.75 12.85-12.85 0-2.5-.72-4.84-1.96-6.81 2.55 2.34 4.16 5.7 4.16 9.44z"/></g><g opacity=".08"><path d="m37.13 45.73c0 .94-.1 1.87-.3 2.75-1.25 5.78-6.38 10.09-12.54 10.09-4.56 0-8.56-2.37-10.83-5.96 2.27 2.07 5.3 3.34 8.62 3.34 7.1 0 12.85-5.75 12.85-12.85 0-2.5-.72-4.84-1.96-6.81 1.25 1.13 2.27 2.51 2.98 4.07.76 1.63 1.18 3.45 1.18 5.37z"/></g><g opacity=".08"><path d="m35.95 40.36c.76 1.63 1.18 3.45 1.18 5.37 0 .94-.1 1.87-.3 2.75-.76-1.63-1.18-3.46-1.18-5.38 0-.94.1-1.86.3-2.74z"/></g><g opacity=".08"><path d="m44.15 31.03c-.82.53-1.7.96-2.63 1.3.81-.53 1.7-.97 2.63-1.3z"/></g><g><path d="m50.69 59.33c-7.49 0-13.58-6.1-13.58-13.6 0-7.49 6.09-13.58 13.58-13.58 7.5 0 13.6 6.09 13.6 13.58-.01 7.5-6.11 13.6-13.6 13.6zm0-25.68c-6.66 0-12.08 5.42-12.08 12.08 0 6.67 5.42 12.1 12.08 12.1 6.67 0 12.1-5.43 12.1-12.1-.01-6.66-5.43-12.08-12.1-12.08z" fill="#241c70"/></g><g><path d="m37.18 33.83c-7.49 0-13.58-6.1-13.58-13.6 0-7.49 6.09-13.58 13.58-13.58 7.5 0 13.6 6.09 13.6 13.58 0 7.5-6.1 13.6-13.6 13.6zm0-25.68c-6.66 0-12.08 5.42-12.08 12.08 0 6.67 5.42 12.1 12.08 12.1 6.67 0 12.1-5.43 12.1-12.1 0-6.66-5.43-12.08-12.1-12.08z" fill="#241c70"/></g><g><path d="m24.28 59.33c-7.49 0-13.58-6.1-13.58-13.6 0-7.49 6.09-13.58 13.58-13.58 7.5 0 13.6 6.09 13.6 13.58 0 7.5-6.1 13.6-13.6 13.6zm0-25.68c-6.66 0-12.08 5.42-12.08 12.08 0 6.67 5.42 12.1 12.08 12.1 6.67 0 12.1-5.43 12.1-12.1 0-6.66-5.43-12.08-12.1-12.08z" fill="#241c70"/></g><g><path d="m64 59.35h-62c-.41 0-.75-.34-.75-.75s.34-.75.75-.75h62c.41 0 .75.34.75.75s-.34.75-.75.75z" fill="#241c70"/></g><g><path d="m39.07 29.39c-5.15 0-9.34-4.19-9.34-9.34 0-4.2 3.42-7.62 7.62-7.62 3.44 0 6.25 2.8 6.25 6.25 0 2.84-2.31 5.15-5.15 5.15-2.35 0-4.27-1.91-4.27-4.27 0-1.97 1.6-3.56 3.56-3.56 1.65 0 3 1.35 3 3 0 1.41-1.14 2.55-2.55 2.55-.41 0-.75-.34-.75-.75s.34-.75.75-.75c.58 0 1.05-.47 1.05-1.05 0-.83-.67-1.5-1.5-1.5-1.14 0-2.06.93-2.06 2.06 0 1.53 1.24 2.77 2.77 2.77 2.01 0 3.65-1.64 3.65-3.65 0-2.62-2.13-4.75-4.75-4.75-3.38 0-6.12 2.75-6.12 6.12 0 4.32 3.52 7.84 7.84 7.84 5.51 0 9.98-4.48 9.98-9.98 0-.41.34-.75.75-.75s.75.34.75.75c0 6.33-5.15 11.48-11.48 11.48z" fill="#241c70"/></g><g><path d="m26.32 56.18c-5.15 0-9.34-4.19-9.34-9.34 0-4.2 3.42-7.62 7.62-7.62 3.44 0 6.25 2.8 6.25 6.25 0 2.84-2.31 5.15-5.15 5.15-2.35 0-4.27-1.91-4.27-4.27 0-1.97 1.6-3.56 3.56-3.56 1.65 0 3 1.35 3 3 0 1.41-1.14 2.55-2.55 2.55-.41 0-.75-.34-.75-.75s.34-.75.75-.75c.58 0 1.05-.47 1.05-1.05 0-.83-.67-1.5-1.5-1.5-1.14 0-2.06.93-2.06 2.06 0 1.53 1.24 2.77 2.77 2.77 2.01 0 3.65-1.64 3.65-3.65 0-2.62-2.13-4.75-4.75-4.75-3.38 0-6.12 2.75-6.12 6.12 0 4.32 3.52 7.84 7.84 7.84 5.51 0 9.98-4.48 9.98-9.98 0-.41.34-.75.75-.75s.75.34.75.75c.01 6.32-5.15 11.48-11.48 11.48z" fill="#241c70"/></g><g><path d="m52.73 56.42c-5.15 0-9.34-4.19-9.34-9.34 0-4.2 3.42-7.62 7.62-7.62 3.44 0 6.25 2.8 6.25 6.25 0 2.84-2.31 5.15-5.15 5.15-2.35 0-4.27-1.91-4.27-4.27 0-1.97 1.6-3.56 3.56-3.56 1.65 0 3 1.35 3 3 0 1.41-1.14 2.55-2.55 2.55-.41 0-.75-.34-.75-.75s.34-.75.75-.75c.58 0 1.05-.47 1.05-1.05 0-.83-.67-1.5-1.5-1.5-1.14 0-2.06.93-2.06 2.06 0 1.53 1.24 2.77 2.77 2.77 2.01 0 3.65-1.64 3.65-3.65 0-2.62-2.13-4.75-4.75-4.75-3.38 0-6.12 2.75-6.12 6.12 0 4.32 3.52 7.84 7.84 7.84 5.51 0 9.98-4.48 9.98-9.98 0-.41.34-.75.75-.75s.75.34.75.75c.01 6.32-5.15 11.48-11.48 11.48z" fill="#241c70"/></g></g></svg>