<svg id="Capa_1" enable-background="new 0 0 512 512" height="512" viewBox="0 0 512 512" width="512" xmlns="http://www.w3.org/2000/svg"><g><g><g><g><path d="m131.756 352.38v149.064c-2.728 0-5.455-.641-7.967-1.923l-106.22-54.151c-6.162-3.14-10.069-9.641-10.069-16.753v-128.229c0-3.586.993-7.015 2.769-9.942z" fill="#d5daf3"/><path d="m131.76 352.379v149.06c-2.73 0-5.46-.64-7.97-1.92l-22.03-11.23v-151.2z" fill="#bec6ed"/><path d="m131.759 352.381v149.06c2.721 0 5.455-.641 7.959-1.923l116.282-59.266v-151.213z" fill="#d5daf3"/><path d="m256 289.039v151.21l-116.28 59.27c-2.51 1.28-5.24 1.92-7.96 1.92v-13.15l85.627-43.65c5.285-2.694 8.613-8.125 8.613-14.057v-126.253z" fill="#bec6ed"/><path d="m256 289.039-124.241 63.342-121.495-61.939c1.681-2.758 4.064-5.08 6.967-6.628l114.529-61.552z" fill="#6c7fd8"/><path d="m256 289.039-124.24 63.34-15-7.65 99.349-50.648c4.179-2.13 4.243-8.078.112-10.298l-99.461-53.464 15-8.06z" fill="#4f66d0"/></g><g><path d="m380.244 352.38v149.064c2.728 0 5.455-.641 7.967-1.923l106.22-54.151c6.162-3.139 10.069-9.64 10.069-16.752v-128.23c0-3.586-.993-7.015-2.768-9.942z" fill="#d5daf3"/><path d="m504.5 300.389v128.23c0 7.11-3.91 13.61-10.07 16.75l-106.22 54.15c-2.51 1.28-5.24 1.92-7.97 1.92v-13.15l84.19-42.92c6.16-3.14 10.07-9.64 10.07-16.75v-124.29l27.23-13.88c1.78 2.92 2.77 6.35 2.77 9.94z" fill="#bec6ed"/><path d="m380.241 352.381v149.06c-2.721 0-5.455-.641-7.959-1.923l-116.282-59.266v-151.213z" fill="#d5daf3"/><path d="m380.24 352.379v149.06c-2.72 0-5.45-.64-7.96-1.92l-22.04-11.23v-151.2z" fill="#bec6ed"/><path d="m256 289.039 124.241 63.342 121.495-61.939c-1.681-2.758-4.064-5.08-6.967-6.628l-114.529-61.552z" fill="#6c7fd8"/><g fill="#4f66d0"><path d="m501.74 290.439-121.5 61.94-15-7.65 99.357-50.649c4.113-2.097 4.32-8.025.26-10.225-.029-.016-.058-.031-.087-.047l-99.53-53.49 15-8.06 114.53 61.55c2.9 1.551 5.29 3.881 6.97 6.631z"/><circle cx="350.244" cy="222.262" r="72.81"/></g></g><g><path d="m256 138.272v150.767l-124.241-66.777-.003-135.977c0-3.586.993-7.015 2.768-9.941z" fill="#d5daf3"/><path d="m256 138.269v150.77l-30-16.13v-149.93z" fill="#bec6ed"/><path d="m380.24 86.289v135.97l-86.17 46.32-38.07 20.46v-150.77l121.47-61.93c1.78 2.93 2.77 6.36 2.77 9.95z" fill="#d5daf3"/><path d="m380.24 86.289v135.97l-30 16.13v-148.17l27.23-13.88c1.78 2.93 2.77 6.36 2.77 9.95z" fill="#bec6ed"/><path d="m380.24 155.889v66.37l-86.17 46.32c-10.4-12.58-16.64-28.73-16.64-46.32 0-40.21 32.6-72.81 72.81-72.81 10.7 0 20.85 2.31 30 6.44z" fill="#bec6ed"/><path d="m377.47 76.343-121.47 61.929-121.476-61.929c1.682-2.764 4.059-5.08 6.961-6.634l106.204-57.055c.029-.012.053-.03.082-.042 5.192-2.758 11.353-2.745 16.534.042l106.203 57.056c2.903 1.554 5.286 3.87 6.962 6.633z" fill="#6c7fd8"/><path d="m377.47 76.339-121.47 61.93-15-7.65 99.337-50.644c4.111-2.096 4.317-8.021.259-10.22-.029-.016-.058-.031-.087-.047l-99.509-53.449 6.69-3.6c.03-.02.05-.03.08-.05 5.19-2.75 11.35-2.74 16.53.05l106.21 57.05c2.9 1.55 5.28 3.87 6.96 6.63z" fill="#4f66d0"/></g></g><circle cx="380.244" cy="222.262" fill="#0ed2b3" r="72.81"/><path d="m453.05 222.259c0 40.21-32.59 72.81-72.81 72.81-5.14 0-10.15-.53-14.99-1.55 33.01-6.91 57.8-36.19 57.8-71.26s-24.79-64.35-57.8-71.26c4.84-1.02 9.85-1.55 14.99-1.55 40.22 0 72.81 32.6 72.81 72.81z" fill="#0ab69f"/></g><g><path d="m508.309 286.851c-.057-.104-.107-.211-.169-.313-2.418-3.968-5.822-7.198-9.82-9.331l-44.094-23.698c4.074-9.609 6.329-20.17 6.329-31.247 0-6.68-.823-13.322-2.447-19.742-1.016-4.016-5.095-6.45-9.109-5.433-4.016 1.015-6.448 5.094-5.433 9.109 1.32 5.22 1.989 10.625 1.989 16.065 0 36.012-29.298 65.31-65.31 65.31s-65.31-29.298-65.31-65.31 29.298-65.31 65.31-65.31c18.292 0 35.866 7.748 48.216 21.257 2.795 3.057 7.539 3.27 10.596.475 3.057-2.794 3.27-7.539.475-10.596-15.185-16.61-36.794-26.136-59.287-26.136-44.283 0-80.31 36.027-80.31 80.31 0 11.077 2.255 21.638 6.329 31.247l-42.764 22.985v-133.626l109.238-55.692v26.506c0 4.142 3.358 7.5 7.5 7.5s7.5-3.358 7.5-7.5v-27.396c0-4.89-1.333-9.673-3.855-13.831-2.404-3.963-5.804-7.198-9.825-9.351l-106.199-57.052c-7.362-3.962-16.165-3.992-23.559-.086-.007.004-.015.008-.022.012-.046.023-.092.048-.138.072l-106.195 57.05c-7.501 3.931-13.585 12.925-13.689 23.187l.003 131.493-110.558 59.417c-7.518 3.917-13.603 12.958-13.701 23.192v128.229c0 10.005 5.428 18.985 14.163 23.434l106.216 54.149c6.02 3.068 14.765 3.943 22.745 0l38.882-19.817c3.69-1.881 5.157-6.397 3.276-10.088-1.882-3.691-6.399-5.157-10.088-3.276l-35.935 18.315v-134.359l109.241-55.694v134.376l-41.443 21.122c-3.69 1.881-5.157 6.397-3.276 10.088 1.881 3.69 6.397 5.156 10.088 3.276l42.131-21.473 112.865 57.524c3.477 1.78 7.37 2.725 11.265 2.743.039.001.076.006.115.006 3.927 0 7.861-.949 11.373-2.742l106.217-54.149c8.738-4.451 14.166-13.431 14.166-23.436v-128.228c-.001-4.777-1.282-9.447-3.692-13.537zm-369.05-69.073-.003-130.604 109.244 55.693v133.626zm174.135 48.927c14.409 21.602 38.991 35.866 66.85 35.866 27.858 0 52.441-14.264 66.85-35.866l41.227 22.157-108.081 55.1-108.072-55.099zm-62.21-247.413c.035-.018.07-.037.105-.055 2.968-1.577 6.504-1.568 9.466.025l103.307 55.499-108.062 55.092-108.068-55.092zm-119.425 211.484 108.073 58.087-108.072 55.099-108.081-55.1zm-7.503 260.563-103.283-52.653c-3.628-1.848-5.973-5.801-5.973-10.069v-127.341l109.256 55.699zm139.244-55.682v-134.376l109.241 55.695v134.358zm233.5-7.04c0 4.269-2.345 8.221-5.976 10.071l-103.28 52.652v-134.365l109.256-55.699z"/><path d="m407.671 197.683-37.657 39.588-18.828-17.444c-3.038-2.816-7.783-2.634-10.599.404-2.815 3.038-2.634 7.783.404 10.599l24.257 22.476c1.442 1.336 3.271 1.999 5.096 1.999 1.983 0 3.962-.782 5.436-2.331l42.759-44.952c2.855-3.001 2.736-7.749-.265-10.603-3-2.855-7.747-2.737-10.603.264z"/></g></g></svg>