<svg width="1496" height="722" viewBox="0 0 1496 722" fill="none" xmlns="http://www.w3.org/2000/svg">
<g clip-path="url(#clip0_204_1418)">
<path d="M257.756 482.38V631.444C255.028 631.444 252.301 630.803 249.789 629.521L143.569 575.37C137.407 572.23 133.5 565.729 133.5 558.617V430.388C133.5 426.802 134.493 423.373 136.269 420.446L257.756 482.38Z" fill="#D5DAF3"/>
<path d="M257.76 482.379V631.439C255.03 631.439 252.3 630.799 249.79 629.519L227.76 618.289V467.089L257.76 482.379Z" fill="#BEC6ED"/>
<path d="M257.759 482.381V631.441C260.48 631.441 263.214 630.8 265.718 629.518L382 570.252V419.039L257.759 482.381Z" fill="#D5DAF3"/>
<path d="M382 419.039V570.249L265.72 629.519C263.21 630.799 260.48 631.439 257.76 631.439V618.289L343.387 574.639C348.672 571.945 352 566.514 352 560.582V434.329L382 419.039Z" fill="#BEC6ED"/>
<path d="M382 419.039L257.759 482.381L136.264 420.442C137.945 417.684 140.328 415.362 143.231 413.814L257.76 352.262L382 419.039Z" fill="#6C7FD8"/>
<path d="M382 419.039L257.76 482.379L242.76 474.729L342.109 424.081C346.288 421.951 346.352 416.003 342.221 413.783L242.76 360.319L257.76 352.259L382 419.039Z" fill="#4F66D0"/>
<path d="M506.244 482.38V631.444C508.972 631.444 511.699 630.803 514.211 629.521L620.431 575.37C626.593 572.231 630.5 565.73 630.5 558.618V430.388C630.5 426.802 629.507 423.373 627.732 420.446L506.244 482.38Z" fill="#D5DAF3"/>
<path d="M630.5 430.389V558.619C630.5 565.729 626.59 572.229 620.43 575.369L514.21 629.519C511.7 630.799 508.97 631.439 506.24 631.439V618.289L590.43 575.369C596.59 572.229 600.5 565.729 600.5 558.619V434.329L627.73 420.449C629.51 423.369 630.5 426.799 630.5 430.389Z" fill="#BEC6ED"/>
<path d="M506.241 482.381V631.441C503.52 631.441 500.786 630.8 498.282 629.518L382 570.252V419.039L506.241 482.381Z" fill="#D5DAF3"/>
<path d="M506.24 482.379V631.439C503.52 631.439 500.79 630.799 498.28 629.519L476.24 618.289V467.089L506.24 482.379Z" fill="#BEC6ED"/>
<path d="M382 419.039L506.241 482.381L627.736 420.442C626.055 417.684 623.672 415.362 620.769 413.814L506.24 352.262L382 419.039Z" fill="#6C7FD8"/>
<path d="M627.74 420.439L506.24 482.379L491.24 474.729L590.597 424.08C594.71 421.983 594.917 416.055 590.857 413.855C590.828 413.839 590.799 413.824 590.77 413.808L491.24 360.318L506.24 352.258L620.77 413.808C623.67 415.359 626.06 417.689 627.74 420.439Z" fill="#4F66D0"/>
<path d="M476.244 425.072C516.456 425.072 549.054 392.474 549.054 352.262C549.054 312.05 516.456 279.452 476.244 279.452C436.032 279.452 403.434 312.05 403.434 352.262C403.434 392.474 436.032 425.072 476.244 425.072Z" fill="#4F66D0"/>
<path d="M382 268.272V419.039L257.759 352.262L257.756 216.285C257.756 212.699 258.749 209.27 260.524 206.344L382 268.272Z" fill="#D5DAF3"/>
<path d="M382 268.269V419.039L352 402.909V252.979L382 268.269Z" fill="#BEC6ED"/>
<path d="M506.24 216.289V352.259L420.07 398.579L382 419.039V268.269L503.47 206.339C505.25 209.269 506.24 212.699 506.24 216.289Z" fill="#D5DAF3"/>
<path d="M506.24 216.289V352.259L476.24 368.389V220.219L503.47 206.339C505.25 209.269 506.24 212.699 506.24 216.289Z" fill="#BEC6ED"/>
<path d="M506.24 285.889V352.259L420.07 398.579C409.67 385.999 403.43 369.849 403.43 352.259C403.43 312.049 436.03 279.449 476.24 279.449C486.94 279.449 497.09 281.759 506.24 285.889Z" fill="#BEC6ED"/>
<path d="M503.47 206.343L382 268.272L260.524 206.343C262.206 203.579 264.583 201.263 267.485 199.709L373.689 142.654C373.718 142.642 373.742 142.624 373.771 142.612C378.963 139.854 385.124 139.867 390.305 142.654L496.508 199.71C499.411 201.264 501.794 203.58 503.47 206.343Z" fill="#6C7FD8"/>
<path d="M503.47 206.339L382 268.269L367 260.619L466.337 209.975C470.448 207.879 470.654 201.954 466.596 199.755C466.567 199.739 466.538 199.724 466.509 199.708L367 146.259L373.69 142.659C373.72 142.639 373.74 142.629 373.77 142.609C378.96 139.859 385.12 139.869 390.3 142.659L496.51 199.709C499.41 201.259 501.79 203.579 503.47 206.339Z" fill="#4F66D0"/>
<path d="M506.244 425.072C546.456 425.072 579.054 392.474 579.054 352.262C579.054 312.05 546.456 279.452 506.244 279.452C466.032 279.452 433.434 312.05 433.434 352.262C433.434 392.474 466.032 425.072 506.244 425.072Z" fill="#0ED2B3"/>
<path d="M579.05 352.259C579.05 392.469 546.46 425.069 506.24 425.069C501.1 425.069 496.09 424.539 491.25 423.519C524.26 416.609 549.05 387.329 549.05 352.259C549.05 317.189 524.26 287.909 491.25 280.999C496.09 279.979 501.1 279.449 506.24 279.449C546.46 279.449 579.05 312.049 579.05 352.259Z" fill="#0AB69F"/>
<path d="M634.309 416.851C634.252 416.747 634.202 416.64 634.14 416.538C631.722 412.57 628.318 409.34 624.32 407.207L580.226 383.509C584.3 373.9 586.555 363.339 586.555 352.262C586.555 345.582 585.732 338.94 584.108 332.52C583.092 328.504 579.013 326.07 574.999 327.087C570.983 328.102 568.551 332.181 569.566 336.196C570.886 341.416 571.555 346.821 571.555 352.261C571.555 388.273 542.257 417.571 506.245 417.571C470.233 417.571 440.935 388.273 440.935 352.261C440.935 316.249 470.233 286.951 506.245 286.951C524.537 286.951 542.111 294.699 554.461 308.208C557.256 311.265 562 311.478 565.057 308.683C568.114 305.889 568.327 301.144 565.532 298.087C550.347 281.477 528.738 271.951 506.245 271.951C461.962 271.951 425.935 307.978 425.935 352.261C425.935 363.338 428.19 373.899 432.264 383.508L389.5 406.493V272.867L498.738 217.175V243.681C498.738 247.823 502.096 251.181 506.238 251.181C510.38 251.181 513.738 247.823 513.738 243.681V216.285C513.738 211.395 512.405 206.612 509.883 202.454C507.479 198.491 504.079 195.256 500.058 193.103L393.859 136.051C386.497 132.089 377.694 132.059 370.3 135.965C370.293 135.969 370.285 135.973 370.278 135.977C370.232 136 370.186 136.025 370.14 136.049L263.945 193.099C256.444 197.03 250.36 206.024 250.256 216.286L250.259 347.779L139.701 407.196C132.183 411.113 126.098 420.154 126 430.388V558.617C126 568.622 131.428 577.602 140.163 582.051L246.379 636.2C252.399 639.268 261.144 640.143 269.124 636.2L308.006 616.383C311.696 614.502 313.163 609.986 311.282 606.295C309.4 602.604 304.883 601.138 301.194 603.019L265.259 621.334V486.975L374.5 431.281V565.657L333.057 586.779C329.367 588.66 327.9 593.176 329.781 596.867C331.662 600.557 336.178 602.023 339.869 600.143L382 578.67L494.865 636.194C498.342 637.974 502.235 638.919 506.13 638.937C506.169 638.938 506.206 638.943 506.245 638.943C510.172 638.943 514.106 637.994 517.618 636.201L623.835 582.052C632.573 577.601 638.001 568.621 638.001 558.616V430.388C638 425.611 636.719 420.941 634.309 416.851ZM265.259 347.778L265.256 217.174L374.5 272.867V406.493L265.259 347.778ZM439.394 396.705C453.803 418.307 478.385 432.571 506.244 432.571C534.102 432.571 558.685 418.307 573.094 396.705L614.321 418.862L506.24 473.962L398.168 418.863L439.394 396.705ZM377.184 149.292C377.219 149.274 377.254 149.255 377.289 149.237C380.257 147.66 383.793 147.669 386.755 149.262L490.062 204.761L382 259.853L273.932 204.761L377.184 149.292ZM257.759 360.776L365.832 418.863L257.76 473.962L149.679 418.862L257.759 360.776ZM250.256 621.339L146.973 568.686C143.345 566.838 141 562.885 141 558.617V431.276L250.256 486.975V621.339ZM389.5 565.657V431.281L498.741 486.976V621.334L389.5 565.657ZM623 558.617C623 562.886 620.655 566.838 617.024 568.688L513.744 621.34V486.975L623 431.276V558.617Z" fill="black"/>
<path d="M533.671 327.683L496.014 367.271L477.186 349.827C474.148 347.011 469.403 347.193 466.587 350.231C463.772 353.269 463.953 358.014 466.991 360.83L491.248 383.306C492.69 384.642 494.519 385.305 496.344 385.305C498.327 385.305 500.306 384.523 501.78 382.974L544.539 338.022C547.394 335.021 547.275 330.273 544.274 327.419C541.274 324.564 536.527 324.682 533.671 327.683Z" fill="black"/>
</g>
<path d="M778.182 184.182C777.636 179.576 775.424 176 771.545 173.455C767.667 170.909 762.909 169.636 757.273 169.636C753.152 169.636 749.545 170.303 746.455 171.636C743.394 172.97 741 174.803 739.273 177.136C737.576 179.47 736.727 182.121 736.727 185.091C736.727 187.576 737.318 189.712 738.5 191.5C739.712 193.258 741.258 194.727 743.136 195.909C745.015 197.061 746.985 198.015 749.045 198.773C751.106 199.5 753 200.091 754.727 200.545L764.182 203.091C766.606 203.727 769.303 204.606 772.273 205.727C775.273 206.848 778.136 208.379 780.864 210.318C783.621 212.227 785.894 214.682 787.682 217.682C789.47 220.682 790.364 224.364 790.364 228.727C790.364 233.758 789.045 238.303 786.409 242.364C783.803 246.424 779.985 249.652 774.955 252.045C769.955 254.439 763.879 255.636 756.727 255.636C750.061 255.636 744.288 254.561 739.409 252.409C734.561 250.258 730.742 247.258 727.955 243.409C725.197 239.561 723.636 235.091 723.273 230H734.909C735.212 233.515 736.394 236.424 738.455 238.727C740.545 241 743.182 242.697 746.364 243.818C749.576 244.909 753.03 245.455 756.727 245.455C761.03 245.455 764.894 244.758 768.318 243.364C771.742 241.939 774.455 239.97 776.455 237.455C778.455 234.909 779.455 231.939 779.455 228.545C779.455 225.455 778.591 222.939 776.864 221C775.136 219.061 772.864 217.485 770.045 216.273C767.227 215.061 764.182 214 760.909 213.091L749.455 209.818C742.182 207.727 736.424 204.742 732.182 200.864C727.939 196.985 725.818 191.909 725.818 185.636C725.818 180.424 727.227 175.879 730.045 172C732.894 168.091 736.712 165.061 741.5 162.909C746.318 160.727 751.697 159.636 757.636 159.636C763.636 159.636 768.97 160.712 773.636 162.864C778.303 164.985 782 167.894 784.727 171.591C787.485 175.288 788.939 179.485 789.091 184.182H778.182ZM807.443 254V184.182H818.17V254H807.443ZM812.898 172.545C810.807 172.545 809.004 171.833 807.489 170.409C806.004 168.985 805.261 167.273 805.261 165.273C805.261 163.273 806.004 161.561 807.489 160.136C809.004 158.712 810.807 158 812.898 158C814.989 158 816.777 158.712 818.261 160.136C819.777 161.561 820.534 163.273 820.534 165.273C820.534 167.273 819.777 168.985 818.261 170.409C816.777 171.833 814.989 172.545 812.898 172.545ZM887.273 199.818L877.636 202.545C877.03 200.939 876.136 199.379 874.955 197.864C873.803 196.318 872.227 195.045 870.227 194.045C868.227 193.045 865.667 192.545 862.545 192.545C858.273 192.545 854.712 193.53 851.864 195.5C849.045 197.439 847.636 199.909 847.636 202.909C847.636 205.576 848.606 207.682 850.545 209.227C852.485 210.773 855.515 212.061 859.636 213.091L870 215.636C876.242 217.152 880.894 219.47 883.955 222.591C887.015 225.682 888.545 229.667 888.545 234.545C888.545 238.545 887.394 242.121 885.091 245.273C882.818 248.424 879.636 250.909 875.545 252.727C871.455 254.545 866.697 255.455 861.273 255.455C854.152 255.455 848.258 253.909 843.591 250.818C838.924 247.727 835.97 243.212 834.727 237.273L844.909 234.727C845.879 238.485 847.712 241.303 850.409 243.182C853.136 245.061 856.697 246 861.091 246C866.091 246 870.061 244.939 873 242.818C875.97 240.667 877.455 238.091 877.455 235.091C877.455 232.667 876.606 230.636 874.909 229C873.212 227.333 870.606 226.091 867.091 225.273L855.455 222.545C849.061 221.03 844.364 218.682 841.364 215.5C838.394 212.288 836.909 208.273 836.909 203.455C836.909 199.515 838.015 196.03 840.227 193C842.47 189.97 845.515 187.591 849.364 185.864C853.242 184.136 857.636 183.273 862.545 183.273C869.455 183.273 874.879 184.788 878.818 187.818C882.788 190.848 885.606 194.848 887.273 199.818ZM935.057 184.182V193.273H898.875V184.182H935.057ZM909.42 167.455H920.148V234C920.148 237.03 920.587 239.303 921.466 240.818C922.375 242.303 923.527 243.303 924.92 243.818C926.345 244.303 927.845 244.545 929.42 244.545C930.602 244.545 931.572 244.485 932.33 244.364C933.087 244.212 933.693 244.091 934.148 244L936.33 253.636C935.602 253.909 934.587 254.182 933.284 254.455C931.981 254.758 930.33 254.909 928.33 254.909C925.299 254.909 922.33 254.258 919.42 252.955C916.542 251.652 914.148 249.667 912.239 247C910.36 244.333 909.42 240.97 909.42 236.909V167.455ZM979.716 255.455C972.989 255.455 967.186 253.97 962.307 251C957.458 248 953.716 243.818 951.08 238.455C948.473 233.061 947.17 226.788 947.17 219.636C947.17 212.485 948.473 206.182 951.08 200.727C953.716 195.242 957.383 190.97 962.08 187.909C966.807 184.818 972.322 183.273 978.625 183.273C982.261 183.273 985.852 183.879 989.398 185.091C992.943 186.303 996.17 188.273 999.08 191C1001.99 193.697 1004.31 197.273 1006.03 201.727C1007.76 206.182 1008.62 211.667 1008.62 218.182V222.727H954.807V213.455H997.716C997.716 209.515 996.928 206 995.352 202.909C993.807 199.818 991.595 197.379 988.716 195.591C985.867 193.803 982.504 192.909 978.625 192.909C974.352 192.909 970.655 193.97 967.534 196.091C964.443 198.182 962.064 200.909 960.398 204.273C958.731 207.636 957.898 211.242 957.898 215.091V221.273C957.898 226.545 958.807 231.015 960.625 234.682C962.473 238.318 965.034 241.091 968.307 243C971.58 244.879 975.383 245.818 979.716 245.818C982.534 245.818 985.08 245.424 987.352 244.636C989.655 243.818 991.64 242.606 993.307 241C994.973 239.364 996.261 237.333 997.17 234.909L1007.53 237.818C1006.44 241.333 1004.61 244.424 1002.03 247.091C999.458 249.727 996.277 251.788 992.489 253.273C988.701 254.727 984.443 255.455 979.716 255.455ZM1024.94 254V184.182H1035.31V195.091H1036.22C1037.67 191.364 1040.02 188.47 1043.26 186.409C1046.5 184.318 1050.4 183.273 1054.94 183.273C1059.55 183.273 1063.38 184.318 1066.44 186.409C1069.53 188.47 1071.94 191.364 1073.67 195.091H1074.4C1076.19 191.485 1078.87 188.621 1082.44 186.5C1086.02 184.348 1090.31 183.273 1095.31 183.273C1101.55 183.273 1106.66 185.227 1110.62 189.136C1114.59 193.015 1116.58 199.061 1116.58 207.273V254H1105.85V207.273C1105.85 202.121 1104.44 198.439 1101.62 196.227C1098.81 194.015 1095.49 192.909 1091.67 192.909C1086.76 192.909 1082.96 194.394 1080.26 197.364C1077.56 200.303 1076.22 204.03 1076.22 208.545V254H1065.31V206.182C1065.31 202.212 1064.02 199.015 1061.44 196.591C1058.87 194.136 1055.55 192.909 1051.49 192.909C1048.7 192.909 1046.09 193.652 1043.67 195.136C1041.28 196.621 1039.34 198.682 1037.85 201.318C1036.4 203.924 1035.67 206.939 1035.67 210.364V254H1024.94ZM1156.74 255.636C1152.31 255.636 1148.3 254.803 1144.69 253.136C1141.09 251.439 1138.22 249 1136.1 245.818C1133.98 242.606 1132.92 238.727 1132.92 234.182C1132.92 230.182 1133.71 226.939 1135.28 224.455C1136.86 221.939 1138.97 219.97 1141.6 218.545C1144.24 217.121 1147.15 216.061 1150.33 215.364C1153.54 214.636 1156.77 214.061 1160.01 213.636C1164.25 213.091 1167.69 212.682 1170.33 212.409C1173 212.106 1174.94 211.606 1176.15 210.909C1177.39 210.212 1178.01 209 1178.01 207.273V206.909C1178.01 202.424 1176.78 198.939 1174.33 196.455C1171.91 193.97 1168.22 192.727 1163.28 192.727C1158.16 192.727 1154.15 193.848 1151.24 196.091C1148.33 198.333 1146.28 200.727 1145.1 203.273L1134.92 199.636C1136.74 195.394 1139.16 192.091 1142.19 189.727C1145.25 187.333 1148.59 185.667 1152.19 184.727C1155.83 183.758 1159.41 183.273 1162.92 183.273C1165.16 183.273 1167.74 183.545 1170.65 184.091C1173.59 184.606 1176.42 185.682 1179.15 187.318C1181.91 188.955 1184.19 191.424 1186.01 194.727C1187.83 198.03 1188.74 202.455 1188.74 208V254H1178.01V244.545H1177.47C1176.74 246.061 1175.53 247.682 1173.83 249.409C1172.13 251.136 1169.88 252.606 1167.06 253.818C1164.24 255.03 1160.8 255.636 1156.74 255.636ZM1158.38 246C1162.62 246 1166.19 245.167 1169.1 243.5C1172.04 241.833 1174.25 239.682 1175.74 237.045C1177.25 234.409 1178.01 231.636 1178.01 228.727V218.909C1177.56 219.455 1176.56 219.955 1175.01 220.409C1173.5 220.833 1171.74 221.212 1169.74 221.545C1167.77 221.848 1165.84 222.121 1163.97 222.364C1162.12 222.576 1160.62 222.758 1159.47 222.909C1156.68 223.273 1154.07 223.864 1151.65 224.682C1149.25 225.47 1147.31 226.667 1145.83 228.273C1144.38 229.848 1143.65 232 1143.65 234.727C1143.65 238.455 1145.03 241.273 1147.78 243.182C1150.57 245.061 1154.1 246 1158.38 246ZM738.545 315.909V409H727.273V315.909H738.545ZM770.42 367V409H759.693V339.182H770.057V350.091H770.966C772.602 346.545 775.087 343.697 778.42 341.545C781.754 339.364 786.057 338.273 791.33 338.273C796.057 338.273 800.193 339.242 803.739 341.182C807.284 343.091 810.042 346 812.011 349.909C813.981 353.788 814.966 358.697 814.966 364.636V409H804.239V365.364C804.239 359.879 802.814 355.606 799.966 352.545C797.117 349.455 793.208 347.909 788.239 347.909C784.814 347.909 781.754 348.652 779.057 350.136C776.39 351.621 774.284 353.788 772.739 356.636C771.193 359.485 770.42 362.939 770.42 367ZM889.159 339.182L863.341 409H852.432L826.614 339.182H838.25L857.523 394.818H858.25L877.523 339.182H889.159ZM930.091 410.455C923.364 410.455 917.561 408.97 912.682 406C907.833 403 904.091 398.818 901.455 393.455C898.848 388.061 897.545 381.788 897.545 374.636C897.545 367.485 898.848 361.182 901.455 355.727C904.091 350.242 907.758 345.97 912.455 342.909C917.182 339.818 922.697 338.273 929 338.273C932.636 338.273 936.227 338.879 939.773 340.091C943.318 341.303 946.545 343.273 949.455 346C952.364 348.697 954.682 352.273 956.409 356.727C958.136 361.182 959 366.667 959 373.182V377.727H905.182V368.455H948.091C948.091 364.515 947.303 361 945.727 357.909C944.182 354.818 941.97 352.379 939.091 350.591C936.242 348.803 932.879 347.909 929 347.909C924.727 347.909 921.03 348.97 917.909 351.091C914.818 353.182 912.439 355.909 910.773 359.273C909.106 362.636 908.273 366.242 908.273 370.091V376.273C908.273 381.545 909.182 386.015 911 389.682C912.848 393.318 915.409 396.091 918.682 398C921.955 399.879 925.758 400.818 930.091 400.818C932.909 400.818 935.455 400.424 937.727 399.636C940.03 398.818 942.015 397.606 943.682 396C945.348 394.364 946.636 392.333 947.545 389.909L957.909 392.818C956.818 396.333 954.985 399.424 952.409 402.091C949.833 404.727 946.652 406.788 942.864 408.273C939.076 409.727 934.818 410.455 930.091 410.455ZM986.045 367V409H975.318V339.182H985.682V350.091H986.591C988.227 346.545 990.712 343.697 994.045 341.545C997.379 339.364 1001.68 338.273 1006.95 338.273C1011.68 338.273 1015.82 339.242 1019.36 341.182C1022.91 343.091 1025.67 346 1027.64 349.909C1029.61 353.788 1030.59 358.697 1030.59 364.636V409H1019.86V365.364C1019.86 359.879 1018.44 355.606 1015.59 352.545C1012.74 349.455 1008.83 347.909 1003.86 347.909C1000.44 347.909 997.379 348.652 994.682 350.136C992.015 351.621 989.909 353.788 988.364 356.636C986.818 359.485 986.045 362.939 986.045 367ZM1080.56 339.182V348.273H1044.38V339.182H1080.56ZM1054.92 322.455H1065.65V389C1065.65 392.03 1066.09 394.303 1066.97 395.818C1067.88 397.303 1069.03 398.303 1070.42 398.818C1071.84 399.303 1073.34 399.545 1074.92 399.545C1076.1 399.545 1077.07 399.485 1077.83 399.364C1078.59 399.212 1079.19 399.091 1079.65 399L1081.83 408.636C1081.1 408.909 1080.09 409.182 1078.78 409.455C1077.48 409.758 1075.83 409.909 1073.83 409.909C1070.8 409.909 1067.83 409.258 1064.92 407.955C1062.04 406.652 1059.65 404.667 1057.74 402C1055.86 399.333 1054.92 395.97 1054.92 391.909V322.455ZM1117.24 410.636C1112.81 410.636 1108.8 409.803 1105.19 408.136C1101.59 406.439 1098.72 404 1096.6 400.818C1094.48 397.606 1093.42 393.727 1093.42 389.182C1093.42 385.182 1094.21 381.939 1095.78 379.455C1097.36 376.939 1099.47 374.97 1102.1 373.545C1104.74 372.121 1107.65 371.061 1110.83 370.364C1114.04 369.636 1117.27 369.061 1120.51 368.636C1124.75 368.091 1128.19 367.682 1130.83 367.409C1133.5 367.106 1135.44 366.606 1136.65 365.909C1137.89 365.212 1138.51 364 1138.51 362.273V361.909C1138.51 357.424 1137.28 353.939 1134.83 351.455C1132.41 348.97 1128.72 347.727 1123.78 347.727C1118.66 347.727 1114.65 348.848 1111.74 351.091C1108.83 353.333 1106.78 355.727 1105.6 358.273L1095.42 354.636C1097.24 350.394 1099.66 347.091 1102.69 344.727C1105.75 342.333 1109.09 340.667 1112.69 339.727C1116.33 338.758 1119.91 338.273 1123.42 338.273C1125.66 338.273 1128.24 338.545 1131.15 339.091C1134.09 339.606 1136.92 340.682 1139.65 342.318C1142.41 343.955 1144.69 346.424 1146.51 349.727C1148.33 353.03 1149.24 357.455 1149.24 363V409H1138.51V399.545H1137.97C1137.24 401.061 1136.03 402.682 1134.33 404.409C1132.63 406.136 1130.38 407.606 1127.56 408.818C1124.74 410.03 1121.3 410.636 1117.24 410.636ZM1118.88 401C1123.12 401 1126.69 400.167 1129.6 398.5C1132.54 396.833 1134.75 394.682 1136.24 392.045C1137.75 389.409 1138.51 386.636 1138.51 383.727V373.909C1138.06 374.455 1137.06 374.955 1135.51 375.409C1134 375.833 1132.24 376.212 1130.24 376.545C1128.27 376.848 1126.34 377.121 1124.47 377.364C1122.62 377.576 1121.12 377.758 1119.97 377.909C1117.18 378.273 1114.57 378.864 1112.15 379.682C1109.75 380.47 1107.81 381.667 1106.33 383.273C1104.88 384.848 1104.15 387 1104.15 389.727C1104.15 393.455 1105.53 396.273 1108.28 398.182C1111.07 400.061 1114.6 401 1118.88 401ZM1168.82 409V339.182H1179.18V349.727H1179.91C1181.18 346.273 1183.48 343.47 1186.82 341.318C1190.15 339.167 1193.91 338.091 1198.09 338.091C1198.88 338.091 1199.86 338.106 1201.05 338.136C1202.23 338.167 1203.12 338.212 1203.73 338.273V349.182C1203.36 349.091 1202.53 348.955 1201.23 348.773C1199.95 348.561 1198.61 348.455 1197.18 348.455C1193.79 348.455 1190.76 349.167 1188.09 350.591C1185.45 351.985 1183.36 353.924 1181.82 356.409C1180.3 358.864 1179.55 361.667 1179.55 364.818V409H1168.82ZM1216.44 409V339.182H1227.17V409H1216.44ZM1221.9 327.545C1219.81 327.545 1218 326.833 1216.49 325.409C1215 323.985 1214.26 322.273 1214.26 320.273C1214.26 318.273 1215 316.561 1216.49 315.136C1218 313.712 1219.81 313 1221.9 313C1223.99 313 1225.78 313.712 1227.26 315.136C1228.78 316.561 1229.53 318.273 1229.53 320.273C1229.53 322.273 1228.78 323.985 1227.26 325.409C1225.78 326.833 1223.99 327.545 1221.9 327.545ZM1275.18 410.455C1268.88 410.455 1263.35 408.955 1258.59 405.955C1253.86 402.955 1250.17 398.758 1247.5 393.364C1244.86 387.97 1243.55 381.667 1243.55 374.455C1243.55 367.182 1244.86 360.833 1247.5 355.409C1250.17 349.985 1253.86 345.773 1258.59 342.773C1263.35 339.773 1268.88 338.273 1275.18 338.273C1281.48 338.273 1287 339.773 1291.73 342.773C1296.48 345.773 1300.18 349.985 1302.82 355.409C1305.48 360.833 1306.82 367.182 1306.82 374.455C1306.82 381.667 1305.48 387.97 1302.82 393.364C1300.18 398.758 1296.48 402.955 1291.73 405.955C1287 408.955 1281.48 410.455 1275.18 410.455ZM1275.18 400.818C1279.97 400.818 1283.91 399.591 1287 397.136C1290.09 394.682 1292.38 391.455 1293.86 387.455C1295.35 383.455 1296.09 379.121 1296.09 374.455C1296.09 369.788 1295.35 365.439 1293.86 361.409C1292.38 357.379 1290.09 354.121 1287 351.636C1283.91 349.152 1279.97 347.909 1275.18 347.909C1270.39 347.909 1266.45 349.152 1263.36 351.636C1260.27 354.121 1257.98 357.379 1256.5 361.409C1255.02 365.439 1254.27 369.788 1254.27 374.455C1254.27 379.121 1255.02 383.455 1256.5 387.455C1257.98 391.455 1260.27 394.682 1263.36 397.136C1266.45 399.591 1270.39 400.818 1275.18 400.818ZM1372.65 354.818L1363.01 357.545C1362.41 355.939 1361.51 354.379 1360.33 352.864C1359.18 351.318 1357.6 350.045 1355.6 349.045C1353.6 348.045 1351.04 347.545 1347.92 347.545C1343.65 347.545 1340.09 348.53 1337.24 350.5C1334.42 352.439 1333.01 354.909 1333.01 357.909C1333.01 360.576 1333.98 362.682 1335.92 364.227C1337.86 365.773 1340.89 367.061 1345.01 368.091L1355.38 370.636C1361.62 372.152 1366.27 374.47 1369.33 377.591C1372.39 380.682 1373.92 384.667 1373.92 389.545C1373.92 393.545 1372.77 397.121 1370.47 400.273C1368.19 403.424 1365.01 405.909 1360.92 407.727C1356.83 409.545 1352.07 410.455 1346.65 410.455C1339.53 410.455 1333.63 408.909 1328.97 405.818C1324.3 402.727 1321.34 398.212 1320.1 392.273L1330.28 389.727C1331.25 393.485 1333.09 396.303 1335.78 398.182C1338.51 400.061 1342.07 401 1346.47 401C1351.47 401 1355.44 399.939 1358.38 397.818C1361.34 395.667 1362.83 393.091 1362.83 390.091C1362.83 387.667 1361.98 385.636 1360.28 384C1358.59 382.333 1355.98 381.091 1352.47 380.273L1340.83 377.545C1334.44 376.03 1329.74 373.682 1326.74 370.5C1323.77 367.288 1322.28 363.273 1322.28 358.455C1322.28 354.515 1323.39 351.03 1325.6 348C1327.84 344.97 1330.89 342.591 1334.74 340.864C1338.62 339.136 1343.01 338.273 1347.92 338.273C1354.83 338.273 1360.25 339.788 1364.19 342.818C1368.16 345.848 1370.98 349.848 1372.65 354.818ZM772.25 531.625C772.417 531.875 772.375 532.708 772.125 534.125C771.958 535.542 771.667 537.083 771.25 538.75C770.917 540.417 770.542 542 770.125 543.5C769.792 544.917 769.5 545.75 769.25 546H768C767.75 546 767.5 545.958 767.25 545.875C767.667 549.875 768 553.083 768.25 555.5C768.5 557.917 768.625 559.25 768.625 559.5C768.625 560.083 768.333 560.917 767.75 562C767.25 563.083 766.667 564.083 766 565C765.333 565.917 764.625 566.625 763.875 567.125C763.208 567.708 762.75 567.75 762.5 567.25C762.083 566.5 761.208 564.25 759.875 560.5C758.542 556.75 757.042 551.625 755.375 545.125C753.708 544.958 751.958 544.792 750.125 544.625C748.375 544.458 746.583 544.292 744.75 544.125C742.917 543.958 741.083 543.75 739.25 543.5C737.5 543.167 735.792 542.875 734.125 542.625C733.292 546.292 732.458 549.75 731.625 553C730.875 556.25 730.125 559.083 729.375 561.5C728.708 563.917 728.125 565.833 727.625 567.25C727.125 568.667 726.75 569.375 726.5 569.375C725.833 569.375 725.167 568.958 724.5 568.125C723.833 567.292 723.208 566.292 722.625 565.125C722.125 563.958 721.708 562.75 721.375 561.5C721.042 560.25 720.875 559.208 720.875 558.375C721.042 556.458 721.25 554.458 721.5 552.375C721.833 550.292 722.083 548.375 722.25 546.625C722.5 544.542 722.75 542.5 723 540.5H722.5C722.167 540.333 721.708 539.958 721.125 539.375C720.542 538.792 719.958 538.208 719.375 537.625C718.792 536.958 718.292 536.333 717.875 535.75C717.458 535.083 717.25 534.583 717.25 534.25C717.25 534.083 717.833 533.917 719 533.75C720.25 533.583 721.875 533.417 723.875 533.25C724.542 528.25 725.25 523.042 726 517.625C726.75 512.208 727.5 507.125 728.25 502.375C729 497.625 729.708 493.5 730.375 490C731.125 486.417 731.75 483.958 732.25 482.625C733.083 480.375 734.542 478.375 736.625 476.625C738.708 474.792 740.875 473.292 743.125 472.125C745.458 470.875 747.667 469.917 749.75 469.25C751.833 468.583 753.375 468.25 754.375 468.25C754.792 468.25 755.25 469.208 755.75 471.125C756.333 472.958 756.917 475.458 757.5 478.625C758.167 481.792 758.833 485.5 759.5 489.75C760.25 493.917 760.958 498.333 761.625 503C762.292 507.667 762.917 512.458 763.5 517.375C764.167 522.208 764.792 526.833 765.375 531.25C769.542 531.25 771.833 531.375 772.25 531.625ZM736.5 532.375C739.167 532.208 741.833 532.083 744.5 532C747.167 531.917 749.792 531.792 752.375 531.625C751.708 528.375 750.958 524.75 750.125 520.75C749.458 517.333 748.667 513.333 747.75 508.75C746.833 504.167 745.917 499.125 745 493.625C744 498.542 743 503.333 742 508C741 512.583 740.083 516.708 739.25 520.375C738.333 524.625 737.417 528.625 736.5 532.375ZM780.227 565V558.864L803.273 533.636C805.977 530.682 808.205 528.114 809.955 525.932C811.705 523.727 813 521.659 813.841 519.727C814.705 517.773 815.136 515.727 815.136 513.591C815.136 511.136 814.545 509.011 813.364 507.216C812.205 505.42 810.614 504.034 808.591 503.057C806.568 502.08 804.295 501.591 801.773 501.591C799.091 501.591 796.75 502.148 794.75 503.261C792.773 504.352 791.239 505.886 790.148 507.864C789.08 509.841 788.545 512.159 788.545 514.818H780.5C780.5 510.727 781.443 507.136 783.33 504.045C785.216 500.955 787.784 498.545 791.034 496.818C794.307 495.091 797.977 494.227 802.045 494.227C806.136 494.227 809.761 495.091 812.92 496.818C816.08 498.545 818.557 500.875 820.352 503.807C822.148 506.739 823.045 510 823.045 513.591C823.045 516.159 822.58 518.67 821.648 521.125C820.739 523.557 819.148 526.273 816.875 529.273C814.625 532.25 811.5 535.886 807.5 540.182L791.818 556.955V557.5H824.273V565H780.227Z" fill="white"/>
<defs>
<clipPath id="clip0_204_1418">
<rect width="512" height="512" fill="white" transform="translate(126 130)"/>
</clipPath>
</defs>
</svg>
