<svg width="1496" height="722" viewBox="0 0 1496 722" fill="none" xmlns="http://www.w3.org/2000/svg">
<g clip-path="url(#clip0_204_1418)">
<path d="M257.756 482.38V631.444C255.028 631.444 252.301 630.803 249.789 629.521L143.569 575.37C137.407 572.23 133.5 565.729 133.5 558.617V430.388C133.5 426.802 134.493 423.373 136.269 420.446L257.756 482.38Z" fill="#D5DAF3"/>
<path d="M257.76 482.379V631.439C255.03 631.439 252.3 630.799 249.79 629.519L227.76 618.289V467.089L257.76 482.379Z" fill="#BEC6ED"/>
<path d="M257.759 482.381V631.441C260.48 631.441 263.214 630.8 265.718 629.518L382 570.252V419.039L257.759 482.381Z" fill="#D5DAF3"/>
<path d="M382 419.039V570.249L265.72 629.519C263.21 630.799 260.48 631.439 257.76 631.439V618.289L343.387 574.639C348.672 571.945 352 566.514 352 560.582V434.329L382 419.039Z" fill="#BEC6ED"/>
<path d="M382 419.039L257.759 482.381L136.264 420.442C137.945 417.684 140.328 415.362 143.231 413.814L257.76 352.262L382 419.039Z" fill="#6C7FD8"/>
<path d="M382 419.039L257.76 482.379L242.76 474.729L342.109 424.081C346.288 421.951 346.352 416.003 342.221 413.783L242.76 360.319L257.76 352.259L382 419.039Z" fill="#4F66D0"/>
<path d="M506.244 482.38V631.444C508.972 631.444 511.699 630.803 514.211 629.521L620.431 575.37C626.593 572.231 630.5 565.73 630.5 558.618V430.388C630.5 426.802 629.507 423.373 627.732 420.446L506.244 482.38Z" fill="#D5DAF3"/>
<path d="M630.5 430.389V558.619C630.5 565.729 626.59 572.229 620.43 575.369L514.21 629.519C511.7 630.799 508.97 631.439 506.24 631.439V618.289L590.43 575.369C596.59 572.229 600.5 565.729 600.5 558.619V434.329L627.73 420.449C629.51 423.369 630.5 426.799 630.5 430.389Z" fill="#BEC6ED"/>
<path d="M506.241 482.381V631.441C503.52 631.441 500.786 630.8 498.282 629.518L382 570.252V419.039L506.241 482.381Z" fill="#D5DAF3"/>
<path d="M506.24 482.379V631.439C503.52 631.439 500.79 630.799 498.28 629.519L476.24 618.289V467.089L506.24 482.379Z" fill="#BEC6ED"/>
<path d="M382 419.039L506.241 482.381L627.736 420.442C626.055 417.684 623.672 415.362 620.769 413.814L506.24 352.262L382 419.039Z" fill="#6C7FD8"/>
<path d="M627.74 420.439L506.24 482.379L491.24 474.729L590.597 424.08C594.71 421.983 594.917 416.055 590.857 413.855C590.828 413.839 590.799 413.824 590.77 413.808L491.24 360.318L506.24 352.258L620.77 413.808C623.67 415.359 626.06 417.689 627.74 420.439Z" fill="#4F66D0"/>
<path d="M476.244 425.072C516.456 425.072 549.054 392.474 549.054 352.262C549.054 312.05 516.456 279.452 476.244 279.452C436.032 279.452 403.434 312.05 403.434 352.262C403.434 392.474 436.032 425.072 476.244 425.072Z" fill="#4F66D0"/>
<path d="M382 268.272V419.039L257.759 352.262L257.756 216.285C257.756 212.699 258.749 209.27 260.524 206.344L382 268.272Z" fill="#D5DAF3"/>
<path d="M382 268.269V419.039L352 402.909V252.979L382 268.269Z" fill="#BEC6ED"/>
<path d="M506.24 216.289V352.259L420.07 398.579L382 419.039V268.269L503.47 206.339C505.25 209.269 506.24 212.699 506.24 216.289Z" fill="#D5DAF3"/>
<path d="M506.24 216.289V352.259L476.24 368.389V220.219L503.47 206.339C505.25 209.269 506.24 212.699 506.24 216.289Z" fill="#BEC6ED"/>
<path d="M506.24 285.889V352.259L420.07 398.579C409.67 385.999 403.43 369.849 403.43 352.259C403.43 312.049 436.03 279.449 476.24 279.449C486.94 279.449 497.09 281.759 506.24 285.889Z" fill="#BEC6ED"/>
<path d="M503.47 206.343L382 268.272L260.524 206.343C262.206 203.579 264.583 201.263 267.485 199.709L373.689 142.654C373.718 142.642 373.742 142.624 373.771 142.612C378.963 139.854 385.124 139.867 390.305 142.654L496.508 199.71C499.411 201.264 501.794 203.58 503.47 206.343Z" fill="#6C7FD8"/>
<path d="M503.47 206.339L382 268.269L367 260.619L466.337 209.975C470.448 207.879 470.654 201.954 466.596 199.755C466.567 199.739 466.538 199.724 466.509 199.708L367 146.259L373.69 142.659C373.72 142.639 373.74 142.629 373.77 142.609C378.96 139.859 385.12 139.869 390.3 142.659L496.51 199.709C499.41 201.259 501.79 203.579 503.47 206.339Z" fill="#4F66D0"/>
<path d="M506.244 425.072C546.456 425.072 579.054 392.474 579.054 352.262C579.054 312.05 546.456 279.452 506.244 279.452C466.032 279.452 433.434 312.05 433.434 352.262C433.434 392.474 466.032 425.072 506.244 425.072Z" fill="#0ED2B3"/>
<path d="M579.05 352.259C579.05 392.469 546.46 425.069 506.24 425.069C501.1 425.069 496.09 424.539 491.25 423.519C524.26 416.609 549.05 387.329 549.05 352.259C549.05 317.189 524.26 287.909 491.25 280.999C496.09 279.979 501.1 279.449 506.24 279.449C546.46 279.449 579.05 312.049 579.05 352.259Z" fill="#0AB69F"/>
<path d="M634.309 416.851C634.252 416.747 634.202 416.64 634.14 416.538C631.722 412.57 628.318 409.34 624.32 407.207L580.226 383.509C584.3 373.9 586.555 363.339 586.555 352.262C586.555 345.582 585.732 338.94 584.108 332.52C583.092 328.504 579.013 326.07 574.999 327.087C570.983 328.102 568.551 332.181 569.566 336.196C570.886 341.416 571.555 346.821 571.555 352.261C571.555 388.273 542.257 417.571 506.245 417.571C470.233 417.571 440.935 388.273 440.935 352.261C440.935 316.249 470.233 286.951 506.245 286.951C524.537 286.951 542.111 294.699 554.461 308.208C557.256 311.265 562 311.478 565.057 308.683C568.114 305.889 568.327 301.144 565.532 298.087C550.347 281.477 528.738 271.951 506.245 271.951C461.962 271.951 425.935 307.978 425.935 352.261C425.935 363.338 428.19 373.899 432.264 383.508L389.5 406.493V272.867L498.738 217.175V243.681C498.738 247.823 502.096 251.181 506.238 251.181C510.38 251.181 513.738 247.823 513.738 243.681V216.285C513.738 211.395 512.405 206.612 509.883 202.454C507.479 198.491 504.079 195.256 500.058 193.103L393.859 136.051C386.497 132.089 377.694 132.059 370.3 135.965C370.293 135.969 370.285 135.973 370.278 135.977C370.232 136 370.186 136.025 370.14 136.049L263.945 193.099C256.444 197.03 250.36 206.024 250.256 216.286L250.259 347.779L139.701 407.196C132.183 411.113 126.098 420.154 126 430.388V558.617C126 568.622 131.428 577.602 140.163 582.051L246.379 636.2C252.399 639.268 261.144 640.143 269.124 636.2L308.006 616.383C311.696 614.502 313.163 609.986 311.282 606.295C309.4 602.604 304.883 601.138 301.194 603.019L265.259 621.334V486.975L374.5 431.281V565.657L333.057 586.779C329.367 588.66 327.9 593.176 329.781 596.867C331.662 600.557 336.178 602.023 339.869 600.143L382 578.67L494.865 636.194C498.342 637.974 502.235 638.919 506.13 638.937C506.169 638.938 506.206 638.943 506.245 638.943C510.172 638.943 514.106 637.994 517.618 636.201L623.835 582.052C632.573 577.601 638.001 568.621 638.001 558.616V430.388C638 425.611 636.719 420.941 634.309 416.851ZM265.259 347.778L265.256 217.174L374.5 272.867V406.493L265.259 347.778ZM439.394 396.705C453.803 418.307 478.385 432.571 506.244 432.571C534.102 432.571 558.685 418.307 573.094 396.705L614.321 418.862L506.24 473.962L398.168 418.863L439.394 396.705ZM377.184 149.292C377.219 149.274 377.254 149.255 377.289 149.237C380.257 147.66 383.793 147.669 386.755 149.262L490.062 204.761L382 259.853L273.932 204.761L377.184 149.292ZM257.759 360.776L365.832 418.863L257.76 473.962L149.679 418.862L257.759 360.776ZM250.256 621.339L146.973 568.686C143.345 566.838 141 562.885 141 558.617V431.276L250.256 486.975V621.339ZM389.5 565.657V431.281L498.741 486.976V621.334L389.5 565.657ZM623 558.617C623 562.886 620.655 566.838 617.024 568.688L513.744 621.34V486.975L623 431.276V558.617Z" fill="black"/>
<path d="M533.671 327.683L496.014 367.271L477.186 349.827C474.148 347.011 469.403 347.193 466.587 350.231C463.772 353.269 463.953 358.014 466.991 360.83L491.248 383.306C492.69 384.642 494.519 385.305 496.344 385.305C498.327 385.305 500.306 384.523 501.78 382.974L544.539 338.022C547.394 335.021 547.275 330.273 544.274 327.419C541.274 324.564 536.527 324.682 533.671 327.683Z" fill="black"/>
</g>
<path d="M774.591 187.682C774.227 184.015 772.667 181.167 769.909 179.136C767.152 177.106 763.409 176.091 758.682 176.091C755.47 176.091 752.758 176.545 750.545 177.455C748.333 178.333 746.636 179.561 745.455 181.136C744.303 182.712 743.727 184.5 743.727 186.5C743.667 188.167 744.015 189.621 744.773 190.864C745.561 192.106 746.636 193.182 748 194.091C749.364 194.97 750.939 195.742 752.727 196.409C754.515 197.045 756.424 197.591 758.455 198.045L766.818 200.045C770.879 200.955 774.606 202.167 778 203.682C781.394 205.197 784.333 207.061 786.818 209.273C789.303 211.485 791.227 214.091 792.591 217.091C793.985 220.091 794.697 223.53 794.727 227.409C794.697 233.106 793.242 238.045 790.364 242.227C787.515 246.379 783.394 249.606 778 251.909C772.636 254.182 766.167 255.318 758.591 255.318C751.076 255.318 744.53 254.167 738.955 251.864C733.409 249.561 729.076 246.152 725.955 241.636C722.864 237.091 721.242 231.47 721.091 224.773H740.136C740.348 227.894 741.242 230.5 742.818 232.591C744.424 234.652 746.561 236.212 749.227 237.273C751.924 238.303 754.97 238.818 758.364 238.818C761.697 238.818 764.591 238.333 767.045 237.364C769.53 236.394 771.455 235.045 772.818 233.318C774.182 231.591 774.864 229.606 774.864 227.364C774.864 225.273 774.242 223.515 773 222.091C771.788 220.667 770 219.455 767.636 218.455C765.303 217.455 762.439 216.545 759.045 215.727L748.909 213.182C741.061 211.273 734.864 208.288 730.318 204.227C725.773 200.167 723.515 194.697 723.545 187.818C723.515 182.182 725.015 177.258 728.045 173.045C731.106 168.833 735.303 165.545 740.636 163.182C745.97 160.818 752.03 159.636 758.818 159.636C765.727 159.636 771.758 160.818 776.909 163.182C782.091 165.545 786.121 168.833 789 173.045C791.879 177.258 793.364 182.136 793.455 187.682H774.591ZM807.602 254V184.182H826.966V254H807.602ZM817.33 175.182C814.451 175.182 811.981 174.227 809.92 172.318C807.89 170.379 806.875 168.061 806.875 165.364C806.875 162.697 807.89 160.409 809.92 158.5C811.981 156.561 814.451 155.591 817.33 155.591C820.208 155.591 822.663 156.561 824.693 158.5C826.754 160.409 827.784 162.697 827.784 165.364C827.784 168.061 826.754 170.379 824.693 172.318C822.663 174.227 820.208 175.182 817.33 175.182ZM900.568 204.091L882.841 205.182C882.538 203.667 881.886 202.303 880.886 201.091C879.886 199.848 878.568 198.864 876.932 198.136C875.326 197.379 873.402 197 871.159 197C868.159 197 865.629 197.636 863.568 198.909C861.508 200.152 860.477 201.818 860.477 203.909C860.477 205.576 861.144 206.985 862.477 208.136C863.811 209.288 866.098 210.212 869.341 210.909L881.977 213.455C888.765 214.848 893.826 217.091 897.159 220.182C900.492 223.273 902.159 227.333 902.159 232.364C902.159 236.939 900.811 240.955 898.114 244.409C895.447 247.864 891.78 250.561 887.114 252.5C882.477 254.409 877.129 255.364 871.068 255.364C861.826 255.364 854.462 253.439 848.977 249.591C843.523 245.712 840.326 240.439 839.386 233.773L858.432 232.773C859.008 235.591 860.402 237.742 862.614 239.227C864.826 240.682 867.659 241.409 871.114 241.409C874.508 241.409 877.235 240.758 879.295 239.455C881.386 238.121 882.447 236.409 882.477 234.318C882.447 232.561 881.705 231.121 880.25 230C878.795 228.848 876.553 227.97 873.523 227.364L861.432 224.955C854.614 223.591 849.538 221.227 846.205 217.864C842.902 214.5 841.25 210.212 841.25 205C841.25 200.515 842.462 196.652 844.886 193.409C847.341 190.167 850.78 187.667 855.205 185.909C859.659 184.152 864.871 183.273 870.841 183.273C879.659 183.273 886.598 185.136 891.659 188.864C896.75 192.591 899.72 197.667 900.568 204.091ZM951.489 184.182V198.727H909.443V184.182H951.489ZM918.989 167.455H938.352V232.545C938.352 234.333 938.625 235.727 939.17 236.727C939.716 237.697 940.473 238.379 941.443 238.773C942.443 239.167 943.595 239.364 944.898 239.364C945.807 239.364 946.716 239.288 947.625 239.136C948.534 238.955 949.231 238.818 949.716 238.727L952.761 253.136C951.792 253.439 950.428 253.788 948.67 254.182C946.913 254.606 944.777 254.864 942.261 254.955C937.595 255.136 933.504 254.515 929.989 253.091C926.504 251.667 923.792 249.455 921.852 246.455C919.913 243.455 918.958 239.667 918.989 235.091V167.455ZM995.17 255.364C987.989 255.364 981.807 253.909 976.625 251C971.473 248.061 967.504 243.909 964.716 238.545C961.928 233.152 960.534 226.773 960.534 219.409C960.534 212.227 961.928 205.924 964.716 200.5C967.504 195.076 971.428 190.848 976.489 187.818C981.58 184.788 987.549 183.273 994.398 183.273C999.004 183.273 1003.29 184.015 1007.26 185.5C1011.26 186.955 1014.75 189.152 1017.72 192.091C1020.72 195.03 1023.05 198.727 1024.72 203.182C1026.38 207.606 1027.22 212.788 1027.22 218.727V224.045H968.261V212.045H1008.99C1008.99 209.258 1008.38 206.788 1007.17 204.636C1005.96 202.485 1004.28 200.803 1002.12 199.591C1000 198.348 997.534 197.727 994.716 197.727C991.777 197.727 989.17 198.409 986.898 199.773C984.655 201.106 982.898 202.909 981.625 205.182C980.352 207.424 979.701 209.924 979.67 212.682V224.091C979.67 227.545 980.307 230.53 981.58 233.045C982.883 235.561 984.716 237.5 987.08 238.864C989.443 240.227 992.246 240.909 995.489 240.909C997.64 240.909 999.61 240.606 1001.4 240C1003.19 239.394 1004.72 238.485 1005.99 237.273C1007.26 236.061 1008.23 234.576 1008.9 232.818L1026.81 234C1025.9 238.303 1024.03 242.061 1021.22 245.273C1018.43 248.455 1014.82 250.939 1010.4 252.727C1006 254.485 1000.93 255.364 995.17 255.364ZM1039.85 254V184.182H1058.31V196.5H1059.12C1060.58 192.409 1063 189.182 1066.4 186.818C1069.79 184.455 1073.85 183.273 1078.58 183.273C1083.37 183.273 1087.44 184.47 1090.81 186.864C1094.17 189.227 1096.41 192.439 1097.53 196.5H1098.26C1099.69 192.5 1102.26 189.303 1105.99 186.909C1109.75 184.485 1114.19 183.273 1119.31 183.273C1125.82 183.273 1131.11 185.348 1135.17 189.5C1139.26 193.621 1141.31 199.47 1141.31 207.045V254H1121.99V210.864C1121.99 206.985 1120.96 204.076 1118.9 202.136C1116.84 200.197 1114.26 199.227 1111.17 199.227C1107.66 199.227 1104.91 200.348 1102.94 202.591C1100.97 204.803 1099.99 207.727 1099.99 211.364V254H1081.22V210.455C1081.22 207.03 1080.23 204.303 1078.26 202.273C1076.32 200.242 1073.76 199.227 1070.58 199.227C1068.43 199.227 1066.49 199.773 1064.76 200.864C1063.06 201.924 1061.72 203.424 1060.72 205.364C1059.72 207.273 1059.22 209.515 1059.22 212.091V254H1039.85ZM1176.51 255.318C1172.06 255.318 1168.09 254.545 1164.6 253C1161.12 251.424 1158.36 249.106 1156.33 246.045C1154.33 242.955 1153.33 239.106 1153.33 234.5C1153.33 230.621 1154.04 227.364 1155.47 224.727C1156.89 222.091 1158.83 219.97 1161.28 218.364C1163.74 216.758 1166.53 215.545 1169.65 214.727C1172.8 213.909 1176.1 213.333 1179.56 213C1183.62 212.576 1186.89 212.182 1189.38 211.818C1191.86 211.424 1193.66 210.848 1194.78 210.091C1195.91 209.333 1196.47 208.212 1196.47 206.727V206.455C1196.47 203.576 1195.56 201.348 1193.74 199.773C1191.95 198.197 1189.41 197.409 1186.1 197.409C1182.62 197.409 1179.84 198.182 1177.78 199.727C1175.72 201.242 1174.36 203.152 1173.69 205.455L1155.78 204C1156.69 199.758 1158.48 196.091 1161.15 193C1163.81 189.879 1167.25 187.485 1171.47 185.818C1175.71 184.121 1180.62 183.273 1186.19 183.273C1190.07 183.273 1193.78 183.727 1197.33 184.636C1200.91 185.545 1204.07 186.955 1206.83 188.864C1209.62 190.773 1211.81 193.227 1213.42 196.227C1215.03 199.197 1215.83 202.758 1215.83 206.909V254H1197.47V244.318H1196.92C1195.8 246.5 1194.3 248.424 1192.42 250.091C1190.54 251.727 1188.28 253.015 1185.65 253.955C1183.01 254.864 1179.97 255.318 1176.51 255.318ZM1182.06 241.955C1184.91 241.955 1187.42 241.394 1189.6 240.273C1191.78 239.121 1193.5 237.576 1194.74 235.636C1195.98 233.697 1196.6 231.5 1196.6 229.045V221.636C1196 222.03 1195.16 222.394 1194.1 222.727C1193.07 223.03 1191.91 223.318 1190.6 223.591C1189.3 223.833 1188 224.061 1186.69 224.273C1185.39 224.455 1184.21 224.621 1183.15 224.773C1180.88 225.106 1178.89 225.636 1177.19 226.364C1175.5 227.091 1174.18 228.076 1173.24 229.318C1172.3 230.53 1171.83 232.045 1171.83 233.864C1171.83 236.5 1172.78 238.515 1174.69 239.909C1176.63 241.273 1179.09 241.955 1182.06 241.955ZM743.773 315.909V409H724.091V315.909H743.773ZM778.966 368.636V409H759.602V339.182H778.057V351.5H778.875C780.42 347.439 783.011 344.227 786.648 341.864C790.284 339.47 794.693 338.273 799.875 338.273C804.723 338.273 808.951 339.333 812.557 341.455C816.163 343.576 818.966 346.606 820.966 350.545C822.966 354.455 823.966 359.121 823.966 364.545V409H804.602V368C804.633 363.727 803.542 360.394 801.33 358C799.117 355.576 796.072 354.364 792.193 354.364C789.587 354.364 787.284 354.924 785.284 356.045C783.314 357.167 781.769 358.803 780.648 360.955C779.557 363.076 778.996 365.636 778.966 368.636ZM901.818 339.182L877.409 409H855.591L831.182 339.182H851.636L866.136 389.136H866.864L881.318 339.182H901.818ZM941.295 410.364C934.114 410.364 927.932 408.909 922.75 406C917.598 403.061 913.629 398.909 910.841 393.545C908.053 388.152 906.659 381.773 906.659 374.409C906.659 367.227 908.053 360.924 910.841 355.5C913.629 350.076 917.553 345.848 922.614 342.818C927.705 339.788 933.674 338.273 940.523 338.273C945.129 338.273 949.417 339.015 953.386 340.5C957.386 341.955 960.871 344.152 963.841 347.091C966.841 350.03 969.174 353.727 970.841 358.182C972.508 362.606 973.341 367.788 973.341 373.727V379.045H914.386V367.045H955.114C955.114 364.258 954.508 361.788 953.295 359.636C952.083 357.485 950.402 355.803 948.25 354.591C946.129 353.348 943.659 352.727 940.841 352.727C937.902 352.727 935.295 353.409 933.023 354.773C930.78 356.106 929.023 357.909 927.75 360.182C926.477 362.424 925.826 364.924 925.795 367.682V379.091C925.795 382.545 926.432 385.53 927.705 388.045C929.008 390.561 930.841 392.5 933.205 393.864C935.568 395.227 938.371 395.909 941.614 395.909C943.765 395.909 945.735 395.606 947.523 395C949.311 394.394 950.841 393.485 952.114 392.273C953.386 391.061 954.356 389.576 955.023 387.818L972.932 389C972.023 393.303 970.159 397.061 967.341 400.273C964.553 403.455 960.947 405.939 956.523 407.727C952.129 409.485 947.053 410.364 941.295 410.364ZM1005.34 368.636V409H985.977V339.182H1004.43V351.5H1005.25C1006.8 347.439 1009.39 344.227 1013.02 341.864C1016.66 339.47 1021.07 338.273 1026.25 338.273C1031.1 338.273 1035.33 339.333 1038.93 341.455C1042.54 343.576 1045.34 346.606 1047.34 350.545C1049.34 354.455 1050.34 359.121 1050.34 364.545V409H1030.98V368C1031.01 363.727 1029.92 360.394 1027.7 358C1025.49 355.576 1022.45 354.364 1018.57 354.364C1015.96 354.364 1013.66 354.924 1011.66 356.045C1009.69 357.167 1008.14 358.803 1007.02 360.955C1005.93 363.076 1005.37 365.636 1005.34 368.636ZM1102.74 339.182V353.727H1060.69V339.182H1102.74ZM1070.24 322.455H1089.6V387.545C1089.6 389.333 1089.88 390.727 1090.42 391.727C1090.97 392.697 1091.72 393.379 1092.69 393.773C1093.69 394.167 1094.84 394.364 1096.15 394.364C1097.06 394.364 1097.97 394.288 1098.88 394.136C1099.78 393.955 1100.48 393.818 1100.97 393.727L1104.01 408.136C1103.04 408.439 1101.68 408.788 1099.92 409.182C1098.16 409.606 1096.03 409.864 1093.51 409.955C1088.84 410.136 1084.75 409.515 1081.24 408.091C1077.75 406.667 1075.04 404.455 1073.1 401.455C1071.16 398.455 1070.21 394.667 1070.24 390.091V322.455ZM1135.26 410.318C1130.81 410.318 1126.84 409.545 1123.35 408C1119.87 406.424 1117.11 404.106 1115.08 401.045C1113.08 397.955 1112.08 394.106 1112.08 389.5C1112.08 385.621 1112.79 382.364 1114.22 379.727C1115.64 377.091 1117.58 374.97 1120.03 373.364C1122.49 371.758 1125.28 370.545 1128.4 369.727C1131.55 368.909 1134.85 368.333 1138.31 368C1142.37 367.576 1145.64 367.182 1148.12 366.818C1150.61 366.424 1152.41 365.848 1153.53 365.091C1154.66 364.333 1155.22 363.212 1155.22 361.727V361.455C1155.22 358.576 1154.31 356.348 1152.49 354.773C1150.7 353.197 1148.16 352.409 1144.85 352.409C1141.37 352.409 1138.59 353.182 1136.53 354.727C1134.47 356.242 1133.11 358.152 1132.44 360.455L1114.53 359C1115.44 354.758 1117.23 351.091 1119.9 348C1122.56 344.879 1126 342.485 1130.22 340.818C1134.46 339.121 1139.37 338.273 1144.94 338.273C1148.82 338.273 1152.53 338.727 1156.08 339.636C1159.66 340.545 1162.82 341.955 1165.58 343.864C1168.37 345.773 1170.56 348.227 1172.17 351.227C1173.78 354.197 1174.58 357.758 1174.58 361.909V409H1156.22V399.318H1155.67C1154.55 401.5 1153.05 403.424 1151.17 405.091C1149.29 406.727 1147.03 408.015 1144.4 408.955C1141.76 409.864 1138.72 410.318 1135.26 410.318ZM1140.81 396.955C1143.66 396.955 1146.17 396.394 1148.35 395.273C1150.53 394.121 1152.25 392.576 1153.49 390.636C1154.73 388.697 1155.35 386.5 1155.35 384.045V376.636C1154.75 377.03 1153.91 377.394 1152.85 377.727C1151.82 378.03 1150.66 378.318 1149.35 378.591C1148.05 378.833 1146.75 379.061 1145.44 379.273C1144.14 379.455 1142.96 379.621 1141.9 379.773C1139.63 380.106 1137.64 380.636 1135.94 381.364C1134.25 382.091 1132.93 383.076 1131.99 384.318C1131.05 385.53 1130.58 387.045 1130.58 388.864C1130.58 391.5 1131.53 393.515 1133.44 394.909C1135.38 396.273 1137.84 396.955 1140.81 396.955ZM1189.6 409V339.182H1208.38V351.364H1209.1C1210.38 347.03 1212.51 343.758 1215.51 341.545C1218.51 339.303 1221.97 338.182 1225.88 338.182C1226.84 338.182 1227.89 338.242 1229.01 338.364C1230.13 338.485 1231.12 338.652 1231.97 338.864V356.045C1231.06 355.773 1229.8 355.53 1228.19 355.318C1226.59 355.106 1225.12 355 1223.78 355C1220.94 355 1218.39 355.621 1216.15 356.864C1213.94 358.076 1212.18 359.773 1210.88 361.955C1209.6 364.136 1208.97 366.652 1208.97 369.5V409H1189.6ZM1241.98 409V339.182H1261.34V409H1241.98ZM1251.7 330.182C1248.83 330.182 1246.36 329.227 1244.3 327.318C1242.27 325.379 1241.25 323.061 1241.25 320.364C1241.25 317.697 1242.27 315.409 1244.3 313.5C1246.36 311.561 1248.83 310.591 1251.7 310.591C1254.58 310.591 1257.04 311.561 1259.07 313.5C1261.13 315.409 1262.16 317.697 1262.16 320.364C1262.16 323.061 1261.13 325.379 1259.07 327.318C1257.04 329.227 1254.58 330.182 1251.7 330.182ZM1308.4 410.364C1301.34 410.364 1295.23 408.864 1290.08 405.864C1284.96 402.833 1281 398.621 1278.22 393.227C1275.43 387.803 1274.03 381.515 1274.03 374.364C1274.03 367.152 1275.43 360.848 1278.22 355.455C1281 350.03 1284.96 345.818 1290.08 342.818C1295.23 339.788 1301.34 338.273 1308.4 338.273C1315.46 338.273 1321.55 339.788 1326.67 342.818C1331.82 345.818 1335.79 350.03 1338.58 355.455C1341.37 360.848 1342.76 367.152 1342.76 374.364C1342.76 381.515 1341.37 387.803 1338.58 393.227C1335.79 398.621 1331.82 402.833 1326.67 405.864C1321.55 408.864 1315.46 410.364 1308.4 410.364ZM1308.49 395.364C1311.7 395.364 1314.38 394.455 1316.53 392.636C1318.69 390.788 1320.31 388.273 1321.4 385.091C1322.52 381.909 1323.08 378.288 1323.08 374.227C1323.08 370.167 1322.52 366.545 1321.4 363.364C1320.31 360.182 1318.69 357.667 1316.53 355.818C1314.38 353.97 1311.7 353.045 1308.49 353.045C1305.25 353.045 1302.52 353.97 1300.31 355.818C1298.13 357.667 1296.47 360.182 1295.35 363.364C1294.26 366.545 1293.72 370.167 1293.72 374.227C1293.72 378.288 1294.26 381.909 1295.35 385.091C1296.47 388.273 1298.13 390.788 1300.31 392.636C1302.52 394.455 1305.25 395.364 1308.49 395.364ZM1413.44 359.091L1395.72 360.182C1395.41 358.667 1394.76 357.303 1393.76 356.091C1392.76 354.848 1391.44 353.864 1389.81 353.136C1388.2 352.379 1386.28 352 1384.03 352C1381.03 352 1378.5 352.636 1376.44 353.909C1374.38 355.152 1373.35 356.818 1373.35 358.909C1373.35 360.576 1374.02 361.985 1375.35 363.136C1376.69 364.288 1378.97 365.212 1382.22 365.909L1394.85 368.455C1401.64 369.848 1406.7 372.091 1410.03 375.182C1413.37 378.273 1415.03 382.333 1415.03 387.364C1415.03 391.939 1413.69 395.955 1410.99 399.409C1408.32 402.864 1404.66 405.561 1399.99 407.5C1395.35 409.409 1390 410.364 1383.94 410.364C1374.7 410.364 1367.34 408.439 1361.85 404.591C1356.4 400.712 1353.2 395.439 1352.26 388.773L1371.31 387.773C1371.88 390.591 1373.28 392.742 1375.49 394.227C1377.7 395.682 1380.53 396.409 1383.99 396.409C1387.38 396.409 1390.11 395.758 1392.17 394.455C1394.26 393.121 1395.32 391.409 1395.35 389.318C1395.32 387.561 1394.58 386.121 1393.12 385C1391.67 383.848 1389.43 382.97 1386.4 382.364L1374.31 379.955C1367.49 378.591 1362.41 376.227 1359.08 372.864C1355.78 369.5 1354.12 365.212 1354.12 360C1354.12 355.515 1355.34 351.652 1357.76 348.409C1360.22 345.167 1363.66 342.667 1368.08 340.909C1372.53 339.152 1377.75 338.273 1383.72 338.273C1392.53 338.273 1399.47 340.136 1404.53 343.864C1409.63 347.591 1412.59 352.667 1413.44 359.091ZM772.25 531.625C772.417 531.875 772.375 532.708 772.125 534.125C771.958 535.542 771.667 537.083 771.25 538.75C770.917 540.417 770.542 542 770.125 543.5C769.792 544.917 769.5 545.75 769.25 546H768C767.75 546 767.5 545.958 767.25 545.875C767.667 549.875 768 553.083 768.25 555.5C768.5 557.917 768.625 559.25 768.625 559.5C768.625 560.083 768.333 560.917 767.75 562C767.25 563.083 766.667 564.083 766 565C765.333 565.917 764.625 566.625 763.875 567.125C763.208 567.708 762.75 567.75 762.5 567.25C762.083 566.5 761.208 564.25 759.875 560.5C758.542 556.75 757.042 551.625 755.375 545.125C753.708 544.958 751.958 544.792 750.125 544.625C748.375 544.458 746.583 544.292 744.75 544.125C742.917 543.958 741.083 543.75 739.25 543.5C737.5 543.167 735.792 542.875 734.125 542.625C733.292 546.292 732.458 549.75 731.625 553C730.875 556.25 730.125 559.083 729.375 561.5C728.708 563.917 728.125 565.833 727.625 567.25C727.125 568.667 726.75 569.375 726.5 569.375C725.833 569.375 725.167 568.958 724.5 568.125C723.833 567.292 723.208 566.292 722.625 565.125C722.125 563.958 721.708 562.75 721.375 561.5C721.042 560.25 720.875 559.208 720.875 558.375C721.042 556.458 721.25 554.458 721.5 552.375C721.833 550.292 722.083 548.375 722.25 546.625C722.5 544.542 722.75 542.5 723 540.5H722.5C722.167 540.333 721.708 539.958 721.125 539.375C720.542 538.792 719.958 538.208 719.375 537.625C718.792 536.958 718.292 536.333 717.875 535.75C717.458 535.083 717.25 534.583 717.25 534.25C717.25 534.083 717.833 533.917 719 533.75C720.25 533.583 721.875 533.417 723.875 533.25C724.542 528.25 725.25 523.042 726 517.625C726.75 512.208 727.5 507.125 728.25 502.375C729 497.625 729.708 493.5 730.375 490C731.125 486.417 731.75 483.958 732.25 482.625C733.083 480.375 734.542 478.375 736.625 476.625C738.708 474.792 740.875 473.292 743.125 472.125C745.458 470.875 747.667 469.917 749.75 469.25C751.833 468.583 753.375 468.25 754.375 468.25C754.792 468.25 755.25 469.208 755.75 471.125C756.333 472.958 756.917 475.458 757.5 478.625C758.167 481.792 758.833 485.5 759.5 489.75C760.25 493.917 760.958 498.333 761.625 503C762.292 507.667 762.917 512.458 763.5 517.375C764.167 522.208 764.792 526.833 765.375 531.25C769.542 531.25 771.833 531.375 772.25 531.625ZM736.5 532.375C739.167 532.208 741.833 532.083 744.5 532C747.167 531.917 749.792 531.792 752.375 531.625C751.708 528.375 750.958 524.75 750.125 520.75C749.458 517.333 748.667 513.333 747.75 508.75C746.833 504.167 745.917 499.125 745 493.625C744 498.542 743 503.333 742 508C741 512.583 740.083 516.708 739.25 520.375C738.333 524.625 737.417 528.625 736.5 532.375ZM780.227 565V558.864L803.273 533.636C805.977 530.682 808.205 528.114 809.955 525.932C811.705 523.727 813 521.659 813.841 519.727C814.705 517.773 815.136 515.727 815.136 513.591C815.136 511.136 814.545 509.011 813.364 507.216C812.205 505.42 810.614 504.034 808.591 503.057C806.568 502.08 804.295 501.591 801.773 501.591C799.091 501.591 796.75 502.148 794.75 503.261C792.773 504.352 791.239 505.886 790.148 507.864C789.08 509.841 788.545 512.159 788.545 514.818H780.5C780.5 510.727 781.443 507.136 783.33 504.045C785.216 500.955 787.784 498.545 791.034 496.818C794.307 495.091 797.977 494.227 802.045 494.227C806.136 494.227 809.761 495.091 812.92 496.818C816.08 498.545 818.557 500.875 820.352 503.807C822.148 506.739 823.045 510 823.045 513.591C823.045 516.159 822.58 518.67 821.648 521.125C820.739 523.557 819.148 526.273 816.875 529.273C814.625 532.25 811.5 535.886 807.5 540.182L791.818 556.955V557.5H824.273V565H780.227Z" fill="black"/>
<defs>
<clipPath id="clip0_204_1418">
<rect width="512" height="512" fill="white" transform="translate(126 130)"/>
</clipPath>
</defs>
</svg>
