<svg id="Layer_1" enable-background="new 0 0 512 512" viewBox="0 0 512 512" xmlns="http://www.w3.org/2000/svg"><g clip-rule="evenodd" fill-rule="evenodd"><g><g><path d="m401.68 380.838h-29.356v-259.953h-324.169v259.953h-29.355v-288.939l191.44-75.899 191.44 75.898z" fill="#837683"/><path d="m401.68 380.838h-14.384v-288.939l-184.248-73.047 7.192-2.852 191.44 75.898zm-353.525-259.953v259.953h-14.383v-259.953z" fill="#685e68"/><path d="m170.562 73.213h79.354c3.493 0 6.352 2.858 6.352 6.351v11.103c0 3.493-2.858 6.351-6.352 6.351h-79.354c-3.493 0-6.351-2.858-6.351-6.351v-11.102c0-3.494 2.858-6.352 6.351-6.352z" fill="#6cf5c2"/><path d="m248.729 73.213h1.188c3.493 0 6.351 2.858 6.351 6.352v11.103c0 3.493-2.858 6.351-6.351 6.351h-79.354c-3.493 0-6.351-2.858-6.351-6.351v-1.301h78.166c3.493 0 6.351-2.859 6.351-6.352z" fill="#00e499"/></g><g><path d="m149.468 144.803h-70.657c-2.21 0-4.012 1.802-4.012 4.012v69.423c0 2.889 2.356 5.245 5.245 5.245h68.19c2.889 0 5.245-2.356 5.245-5.245v-69.423c.001-2.21-1.801-4.012-4.011-4.012z" fill="#e3a76f"/><path d="m149.468 144.803h-9.949c2.21 0 4.012 1.802 4.012 4.012v69.423c0 2.889-2.356 5.245-5.245 5.245h9.948c2.889 0 5.245-2.356 5.245-5.245v-69.423c.001-2.21-1.801-4.012-4.011-4.012z" fill="#c48958"/><path d="m127.312 144.803h-26.344v26.752c0 2.946 2.403 5.349 5.349 5.349h15.645c2.946 0 5.349-2.403 5.349-5.349v-26.752z" fill="#f2d1a5"/><path d="m127.312 144.803h-5.912v26.752c0 2.946-2.403 5.349-5.349 5.349h5.912c2.946 0 5.349-2.403 5.349-5.349z" fill="#ecba78"/></g><g><path d="m149.468 223.479h-70.657c-2.21 0-4.012 1.802-4.012 4.012v69.423c0 2.889 2.356 5.245 5.245 5.245h68.19c2.889 0 5.245-2.356 5.245-5.245v-69.423c.001-2.21-1.801-4.012-4.011-4.012z" fill="#e3a76f"/><path d="m149.468 223.479h-9.949c2.21 0 4.012 1.802 4.012 4.012v69.423c0 2.889-2.356 5.245-5.245 5.245h9.948c2.889 0 5.245-2.356 5.245-5.245v-69.423c.001-2.21-1.801-4.012-4.011-4.012z" fill="#c48958"/><path d="m127.312 223.479h-26.344v26.752c0 2.946 2.403 5.349 5.349 5.349h15.645c2.946 0 5.349-2.403 5.349-5.349v-26.752z" fill="#f2d1a5"/><path d="m127.312 223.479h-5.912v26.752c0 2.946-2.403 5.349-5.349 5.349h5.912c2.946 0 5.349-2.403 5.349-5.349z" fill="#ecba78"/></g><g><path d="m228.144 223.479h-70.657c-2.21 0-4.012 1.802-4.012 4.012v69.423c0 2.889 2.356 5.245 5.245 5.245h68.19c2.889 0 5.245-2.356 5.245-5.245v-69.423c.001-2.21-1.801-4.012-4.011-4.012z" fill="#e3a76f"/><path d="m228.144 223.479h-9.949c2.21 0 4.012 1.802 4.012 4.012v69.423c0 2.889-2.356 5.245-5.245 5.245h9.948c2.889 0 5.245-2.356 5.245-5.245v-69.423c.001-2.21-1.801-4.012-4.011-4.012z" fill="#c48958"/><path d="m205.987 223.479h-26.344v26.752c0 2.946 2.403 5.349 5.349 5.349h15.646c2.946 0 5.349-2.403 5.349-5.349z" fill="#f2d1a5"/><path d="m205.987 223.479h-5.912v26.752c0 2.946-2.403 5.349-5.349 5.349h5.912c2.946 0 5.349-2.403 5.349-5.349z" fill="#ecba78"/></g><g><path d="m228.144 302.155h-70.657c-2.21 0-4.012 1.802-4.012 4.012v69.423c0 2.889 2.356 5.245 5.245 5.245h68.19c2.889 0 5.245-2.356 5.245-5.245v-69.423c.001-2.21-1.801-4.012-4.011-4.012z" fill="#e3a76f"/><path d="m228.144 302.155h-9.949c2.21 0 4.012 1.802 4.012 4.012v69.423c0 2.889-2.356 5.245-5.245 5.245h9.948c2.889 0 5.245-2.356 5.245-5.245v-69.423c.001-2.21-1.801-4.012-4.011-4.012z" fill="#c48958"/><path d="m205.987 302.155h-26.344v26.752c0 2.946 2.403 5.349 5.349 5.349h15.646c2.946 0 5.349-2.403 5.349-5.349z" fill="#f2d1a5"/><path d="m205.987 302.155h-5.912v26.752c0 2.946-2.403 5.349-5.349 5.349h5.912c2.946 0 5.349-2.403 5.349-5.349z" fill="#ecba78"/></g><g><path d="m149.468 302.155h-70.657c-2.21 0-4.012 1.802-4.012 4.012v69.423c0 2.889 2.356 5.245 5.245 5.245h68.19c2.889 0 5.245-2.356 5.245-5.245v-69.423c.001-2.21-1.801-4.012-4.011-4.012z" fill="#e3a76f"/><path d="m149.468 302.155h-9.949c2.21 0 4.012 1.802 4.012 4.012v69.423c0 2.889-2.356 5.245-5.245 5.245h9.948c2.889 0 5.245-2.356 5.245-5.245v-69.423c.001-2.21-1.801-4.012-4.011-4.012z" fill="#c48958"/><path d="m127.311 302.155h-26.344v26.752c0 2.946 2.403 5.349 5.349 5.349h15.646c2.946 0 5.349-2.403 5.349-5.349z" fill="#f2d1a5"/><path d="m127.311 302.155h-5.912v26.752c0 2.946-2.403 5.349-5.349 5.349h5.912c2.946 0 5.349-2.403 5.349-5.349z" fill="#ecba78"/></g><g><path d="m478.105 188.088c8.313 0 15.093 6.781 15.093 15.094v277.725c0 8.313-6.78 15.094-15.093 15.094h-232.443c-8.313 0-15.094-6.78-15.094-15.094v-277.725c0-8.313 6.781-15.094 15.094-15.094z" fill="#837683"/><path d="m458.626 496h19.479c8.313 0 15.093-6.78 15.093-15.094v-277.724c0-8.313-6.78-15.094-15.093-15.094h-19.479z" fill="#685e68"/><path d="m465.414 209.086h-207.061c-3.739 0-6.787 3.049-6.787 6.787v252.343c0 3.739 3.049 6.787 6.787 6.787h207.061c3.738 0 6.787-3.049 6.787-6.787v-252.343c0-3.739-3.049-6.787-6.787-6.787z" fill="#eceff1"/><path d="m458.626 475.003h6.788c.214 0 .425-.01.634-.029 3.443-.321 6.153-3.233 6.153-6.758v-252.343c0-3.525-2.71-6.437-6.153-6.758-.209-.019-.42-.029-.634-.029h-6.788z" fill="#d1d1d6"/><path d="m310.56 178.965h21.514c2.771 0 5.138-1.558 6.234-4.103 3.931-9.128 13.006-15.519 23.576-15.519 10.569 0 19.645 6.391 23.576 15.519 1.096 2.545 3.463 4.103 6.234 4.103h21.514c3.738 0 6.787 3.049 6.787 6.787v25.669c0 3.738-3.049 6.787-6.787 6.787h-102.648c-3.738 0-6.787-3.049-6.787-6.787v-25.669c0-3.738 3.049-6.787 6.787-6.787z" fill="#e3a76f"/><path d="m406.419 211.421-102.646.001c0 3.738 3.049 6.787 6.787 6.787h102.647c3.738 0 6.788-3.049 6.788-6.787v-2.336-20.997-2.336c0-3.738-3.049-6.787-6.788-6.788v9.124 16.546c0 1.701-.631 3.259-1.671 4.452-1.246 1.428-3.079 2.334-5.117 2.334z" fill="#c48958"/><path d="m295.496 396.879h25.454c4.62 0 8.4 3.779 8.4 8.399v25.455c0 4.62-3.779 8.399-8.4 8.399h-25.454c-4.62 0-8.399-3.78-8.399-8.399v-25.455c0-4.62 3.779-8.399 8.399-8.399z" fill="#ffe177"/><path d="m311.907 396.879h9.043c4.619 0 8.399 3.779 8.399 8.399v25.455c0 4.62-3.78 8.399-8.399 8.399h-9.043c4.619 0 8.399-3.779 8.399-8.399v-25.455c0-4.62-3.779-8.399-8.399-8.399z" fill="#ffd064"/><path d="m295.496 325.485h25.454c4.62 0 8.4 3.779 8.4 8.399v25.455c0 4.62-3.779 8.399-8.4 8.399h-25.454c-4.62 0-8.399-3.779-8.399-8.399v-25.455c0-4.62 3.779-8.399 8.399-8.399z" fill="#6cf5c2"/><path d="m311.907 325.485h9.043c4.619 0 8.399 3.78 8.399 8.4v25.455c0 4.62-3.78 8.399-8.399 8.399h-9.043c4.619 0 8.399-3.78 8.399-8.399v-25.455c0-4.62-3.779-8.4-8.399-8.4z" fill="#00e499"/><path d="m295.496 254.091h25.454c4.62 0 8.4 3.779 8.4 8.399v25.455c0 4.62-3.779 8.399-8.4 8.399h-25.454c-4.62 0-8.399-3.779-8.399-8.399v-25.455c0-4.619 3.779-8.399 8.399-8.399z" fill="#8ac9fe"/><path d="m311.907 254.091h9.043c4.619 0 8.399 3.78 8.399 8.399v25.455c0 4.62-3.78 8.399-8.399 8.399h-9.043c4.619 0 8.399-3.78 8.399-8.399v-25.455c0-4.619-3.779-8.399-8.399-8.399z" fill="#60b7ff"/></g></g><path d="m248.257 89.023h-76.063v-7.809h76.063zm8.002-23.812h-92.066c-4.425 0-8.002 3.582-8.002 8.002v23.812c0 4.42 3.577 7.997 8.002 7.997h92.066c4.425 0 8.002-3.577 8.002-7.997v-23.812c0-4.42-3.578-8.002-8.002-8.002zm98.844 115.163c0-3.742 3.012-6.783 6.778-6.783 3.719 0 6.778 3.04 6.778 6.783 0 3.747-3.06 6.787-6.778 6.787-3.765.001-6.778-3.04-6.778-6.787zm-33.748 250.35c0 .198-.235.4-.423.4h-25.464c-.189 0-.377-.202-.377-.4v-25.45c0-.202.188-.4.377-.4h25.464c.188 0 .423.198.423.4zm-.424-41.849h-25.464c-9.037 0-16.38 7.357-16.38 16.399v25.45c0 9.046 7.343 16.399 16.38 16.399h25.464c9.037 0 16.427-7.352 16.427-16.399v-25.45c0-9.042-7.389-16.399-16.427-16.399zm.424-29.54c0 .198-.235.4-.423.4h-25.464c-.189 0-.377-.202-.377-.4v-25.455c0-.198.188-.395.377-.395h25.464c.188 0 .423.198.423.395zm-.424-41.854h-25.464c-9.037 0-16.38 7.352-16.38 16.399v25.455c0 9.038 7.343 16.399 16.38 16.399h25.464c9.037 0 16.427-7.361 16.427-16.399v-25.455c0-9.047-7.389-16.399-16.427-16.399zm.424-54.99v25.45c0 .202-.235.4-.423.4h-25.464c-.189 0-.377-.198-.377-.4v-25.45c0-.207.188-.396.377-.396h25.464c.188 0 .423.189.423.396zm-42.268 0v25.45c0 9.042 7.343 16.404 16.38 16.404h25.464c9.037 0 16.427-7.362 16.427-16.404v-25.45c0-9.047-7.39-16.399-16.427-16.399h-25.464c-9.037 0-16.38 7.352-16.38 16.399zm78.652 170.601c0-4.42 3.577-7.997 8.002-7.997h70.932c4.425 0 8.002 3.577 8.002 7.997s-3.577 8.002-8.002 8.002h-70.932c-4.425-.001-8.002-3.583-8.002-8.002zm0-30.19c0-4.41 3.577-7.997 8.002-7.997h70.932c4.425 0 8.002 3.587 8.002 7.997 0 4.42-3.577 8.002-8.002 8.002h-70.932c-4.425-.001-8.002-3.582-8.002-8.002zm0-41.2c0-4.42 3.577-8.002 8.002-8.002h70.932c4.425 0 8.002 3.582 8.002 8.002 0 4.41-3.577 8.002-8.002 8.002h-70.932c-4.425 0-8.002-3.591-8.002-8.002zm0-30.19c0-4.42 3.577-8.002 8.002-8.002h70.932c4.425 0 8.002 3.582 8.002 8.002s-3.577 8.002-8.002 8.002h-70.932c-4.425 0-8.002-3.582-8.002-8.002zm0-41.208c0-4.41 3.577-8.002 8.002-8.002h70.932c4.425 0 8.002 3.591 8.002 8.002 0 4.42-3.577 7.997-8.002 7.997h-70.932c-4.425 0-8.002-3.578-8.002-7.997zm0-30.181c0-4.42 3.577-8.002 8.002-8.002h70.932c4.425 0 8.002 3.582 8.002 8.002s-3.577 8.002-8.002 8.002h-70.932c-4.425 0-8.002-3.582-8.002-8.002zm127.462 220.79v-277.729c0-3.911-3.201-7.102-7.107-7.102h-50.128v5.003h44.245c4.424 0 8.002 3.577 8.002 7.997v265.92c0 4.42-3.577 8.002-8.002 8.002h-220.659c-4.425 0-8.002-3.582-8.002-8.002v-265.92c0-4.42 3.577-7.997 8.002-7.997h44.198v-5.003h-50.081c-3.907 0-7.108 3.191-7.108 7.102v277.729c0 3.907 3.201 7.089 7.108 7.089h232.426c3.906 0 7.106-3.182 7.106-7.089zm-323.739-108.079v-62.672h10.167v24.099c0 4.42 3.577 8.002 8.002 8.002h26.359c4.424 0 8.002-3.582 8.002-8.002v-24.099h8.567v62.672zm-78.652-62.672h10.167v24.099c0 4.42 3.577 8.002 8.002 8.002h26.312c4.425 0 8.002-3.582 8.002-8.002v-24.099h10.167v62.672h-62.65zm0-157.351h10.167v24.104c0 4.406 3.577 7.997 8.002 7.997h26.312c4.425 0 8.002-3.591 8.002-7.997v-24.104h10.167v62.672h-62.65zm26.17 0v16.102h10.308v-16.102zm78.652 78.671h10.355v16.103h-10.355zm-68.343 0v16.103h-10.309v-16.103zm-36.479 62.681h62.648v-62.682h-10.167v24.099c0 4.42-3.577 8.002-8.002 8.002h-26.312c-4.424 0-8.002-3.582-8.002-8.002v-24.099h-10.165zm26.17 15.999v16.102h10.308v-16.102zm78.652 0v16.102h10.355v-16.102zm34.926-15.999v-62.682h-8.567v24.099c0 4.42-3.577 8.002-8.002 8.002h-26.359c-4.425 0-8.002-3.582-8.002-8.002v-24.099h-10.167v62.682zm89.195-107.199v23.247h100.21v-23.247h-25.135c-3.719 0-6.919-2.532-7.766-6.124-1.318-5.418-5.036-9.706-9.837-11.908-.047-.019-.141-.061-.188-.09-2.212-.969-4.613-1.501-7.154-1.501-8.19 0-15.25 5.55-17.18 13.499-.847 3.591-4.095 6.124-7.766 6.124zm60.577-74.081c4.425 0 8.002 3.582 8.002 8.002v35.928c5.225 3.422 9.461 8.294 12.144 14.154h1.177v-73.63l-183.428-72.723-183.427 72.722v275.498h13.368v-251.95c0-4.42 3.577-8.002 8.002-8.002h324.162zm-68.579 113.327c-4.424 0-8.002-3.587-8.002-7.997v-1.13h-36.196v249.921h204.655v-249.921h-36.243v1.13c0 4.41-3.577 7.997-8.002 7.997zm174.343-46.127h-50.128v-1.12c0-4.42-3.577-7.997-8.002-7.997h-10.308v-79.062c0-3.281-1.977-6.232-5.036-7.442l-191.429-75.898c-1.93-.753-4.001-.753-5.931 0l-191.429 75.899c-3.059 1.21-5.036 4.161-5.036 7.442v288.927c0 4.424 3.577 8.002 8.002 8.002h29.371c4.378 0 8.002-3.577 8.002-8.002v-251.95h308.16v22.551c-.847-.061-1.647-.089-2.448-.089-13.415 0-25.229 7.809-30.642 19.623h-27.488c-4.424 0-8.002 3.577-8.002 7.997v1.12h-50.081c-12.756 0-23.111 10.36-23.111 23.101v12.299h-61.095v-70.669c0-4.42-3.577-8.002-8.002-8.002h-78.653c-4.424 0-8.002 3.582-8.002 8.002v73.432c0 1.007.094 1.986.329 2.937-.235.73-.329 1.497-.329 2.302v73.427c0 1.012.094 2 .329 2.942-.235.73-.329 1.506-.329 2.306v73.432c0 7.3 5.931 13.241 13.227 13.241h68.203c1.836 0 3.624-.391 5.225-1.083 1.601.692 3.389 1.083 5.272 1.083h63.826v92.081c0 12.727 10.355 23.087 23.111 23.087h232.426c12.756 0 23.111-10.36 23.111-23.087v-277.731c-.002-12.741-10.357-23.101-23.113-23.101z" fill="#242222"/></g></svg>