<svg id="Capa_1" enable-background="new 0 0 512 512" height="512" viewBox="0 0 512 512" width="512" xmlns="http://www.w3.org/2000/svg"><g><g><g><g><g><g id="XMLID_898_"><g id="XMLID_899_"><g id="XMLID_900_"><g id="XMLID_901_"><g id="XMLID_902_"><g id="XMLID_903_"><g id="XMLID_904_"><g id="XMLID_905_"><g id="XMLID_906_"><g id="XMLID_907_"><g id="XMLID_908_"><g id="XMLID_1197_"><g id="XMLID_1198_"><g id="XMLID_1199_"><g><path d="m70.524 432.446c-43.701-45.918-70.524-108.05-70.524-176.446 0-141.38 114.62-256 256-256s256 114.62 256 256c0 68.396-26.823 130.528-70.524 176.446z" fill="#a0d34f"/></g></g></g></g></g></g></g></g></g></g></g></g></g></g></g></g></g></g></g><path d="m512 256c0-3.511-.091-7-.231-10.477l-175.218-175.218-80.549 209.458 93.758 152.683h91.716c43.701-45.918 70.524-108.05 70.524-176.446z" fill="#6fa82c"/><path d="m256 41.883c-12.004-1.79-77.567-8.036-99.22 64.697 0 0-57.626 28.602-29.391 89.025s-84.115 47.634 19.791 150.41h188.582c103.906-102.777-67.758-305.923-79.762-304.132z" fill="#6d6d6d"/><g><path d="m384.611 195.605c28.235-60.423-29.391-89.025-29.391-89.025-21.654-72.733-87.216-66.488-99.22-64.697v304.132h108.82c103.906-102.777-8.444-89.987 19.791-150.41z" fill="#4f4f4f"/></g><path d="m310.764 247.127h-109.528v90.447l54.764 17.003 54.764-17.003z" fill="#ffb985"/><path d="m310.764 247.127h-54.764v107.449l54.764-17.002z" fill="#f9a267"/><path d="m256 83.535c-35.455 0-77.357 19.144-80.769 70.945-9.169 1.773-15.682 13.799-14.656 23.522l1.572 22.127c1.076 10.211 10.051 17.665 19.942 16.555l1.706-.185c6.925 18.572 15.186 31.472 23.867 40.523 16.74 17.463 35.052 20.64 48.338 22.741 13.286-2.101 35.456-196.228 0-196.228z" fill="#ffd3ab"/><g><path d="m304.339 257.022c8.681-9.051 16.942-21.951 23.867-40.523l1.706.185c9.892 1.11 18.867-6.344 19.943-16.555l1.571-22.127c1.025-9.723-5.488-21.749-14.657-23.522-3.412-51.8-45.314-70.945-80.769-70.945v196.228c13.286-2.101 31.599-5.279 48.339-22.741z" fill="#ffb985"/></g><path d="m441.48 375.26v57.19c-46.64 49-112.49 79.55-185.48 79.55s-138.84-30.55-185.48-79.55v-57.19c0-30.52 24.74-55.27 55.26-55.27h46.24l14.75 8.827 14.47-8.827h109.52l18.88 13.909 10.34-13.909h46.24c30.52 0 55.26 24.75 55.26 55.27z" fill="#ffd3ab"/><g><path d="m386.22 319.99h-46.24l-12.316 10.521-16.904-10.521h-54.76v192.01c72.99 0 138.84-30.55 185.48-79.55v-57.19c0-30.52-24.74-55.27-55.26-55.27z" fill="#ffb985"/></g><path d="m256.005 170.358c-10.806 6.396-24.894 11.331-43.259 13.236l-11.51-27.388s-16.368 24.847-17.252 37.271c0 0-64.064-142.306 72.016-142.306 0 0 60.4 21.21 70.158 45.553l-48.188 2.259z" fill="#6d6d6d"/><g><path d="m291.522 115.547c14.252 45.19 40.659 77.929 40.659 77.929s59.899-142.305-76.181-142.305v119.18c34.048-20.156 35.522-54.804 35.522-54.804z" fill="#4f4f4f"/></g><path d="m407.84 462.12c-42.48 31.35-95 49.88-151.84 49.88s-109.36-18.53-151.84-49.88l16.08-74.57s48.95-23.3 51.78-67.56h29.22l54.76 137.58 54.76-137.58h29.22c2.83 44.26 51.78 67.56 51.78 67.56z" fill="#306baa"/><path d="m391.76 387.55s-48.95-23.3-51.78-67.56h-29.22l-54.76 137.58v54.43c56.84 0 109.36-18.53 151.84-49.88z" fill="#0f476d"/></g></svg>