<svg width="512" height="512" viewBox="0 0 512 512" fill="none" xmlns="http://www.w3.org/2000/svg">
<g clip-path="url(#clip0_179_1165)">
<path d="M256 512C397.385 512 512 397.385 512 256C512 114.615 397.385 0 256 0C114.615 0 0 114.615 0 256C0 397.385 114.615 512 256 512Z" fill="white"/>
<path fill-rule="evenodd" clip-rule="evenodd" d="M328.495 240.761H246.983C243.936 240.761 241.45 238.275 241.45 235.228C241.45 232.162 243.936 229.694 246.983 229.694H328.495C331.561 229.694 334.028 232.162 334.028 235.228C334.028 238.275 331.561 240.761 328.495 240.761ZM375.573 419.839H136.427C133.379 419.839 130.894 417.372 130.894 414.306V120.625C130.894 117.559 133.379 115.092 136.427 115.092H183.759V97.694C183.759 94.6462 186.226 92.1608 189.292 92.1608H322.726C325.774 92.1608 328.259 94.6462 328.259 97.694V115.092H375.573C378.639 115.092 381.106 117.559 381.106 120.625V414.306C381.106 417.372 378.639 419.839 375.573 419.839ZM183.759 126.159H141.96V408.773H370.04V126.159H328.259V138.005H352.642C355.708 138.005 358.175 140.491 358.175 143.539V391.393C358.175 394.441 355.708 396.908 352.642 396.908H159.358C156.292 396.908 153.825 394.441 153.825 391.393V143.539C153.825 140.491 156.292 138.005 159.358 138.005H183.759V126.159ZM164.891 385.86H347.127V149.072H164.891V385.86ZM194.826 138.005H317.192V103.227H194.826V138.005ZM316.503 173.618H195.497C192.449 173.618 189.963 171.15 189.963 168.085C189.963 165.037 192.449 162.551 195.497 162.551H316.503C319.551 162.551 322.036 165.037 322.036 168.085C322.036 171.15 319.551 173.618 316.503 173.618ZM225.322 372.38H183.505C180.439 372.38 177.972 369.895 177.972 366.847V325.012C177.972 321.964 180.439 319.478 183.505 319.478H225.322C228.37 319.478 230.855 321.964 230.855 325.012V366.847C230.855 369.895 228.37 372.38 225.322 372.38ZM189.038 361.314H219.789V330.545H189.038V361.314ZM287.748 330.545H246.983C243.936 330.545 241.45 328.078 241.45 325.012C241.45 321.964 243.936 319.478 246.983 319.478H287.748C290.796 319.478 293.281 321.964 293.281 325.012C293.281 328.078 290.796 330.545 287.748 330.545ZM328.495 351.463H246.983C243.936 351.463 241.45 348.977 241.45 345.929C241.45 342.881 243.936 340.396 246.983 340.396H328.495C331.561 340.396 334.028 342.881 334.028 345.929C334.028 348.977 331.561 351.463 328.495 351.463ZM328.495 372.38H246.983C243.936 372.38 241.45 369.895 241.45 366.847C241.45 363.781 243.936 361.314 246.983 361.314H328.495C331.561 361.314 334.028 363.781 334.028 366.847C334.028 369.895 331.561 372.38 328.495 372.38ZM225.322 306.561H183.505C180.439 306.561 177.972 304.094 177.972 301.028V259.211C177.972 256.163 180.439 253.678 183.505 253.678H225.322C228.37 253.678 230.855 256.163 230.855 259.211V301.028C230.855 304.094 228.37 306.561 225.322 306.561ZM189.038 295.495H219.789V264.744H189.038V295.495ZM287.748 264.744H246.983C243.936 264.744 241.45 262.277 241.45 259.211C241.45 256.163 243.936 253.678 246.983 253.678H287.748C290.796 253.678 293.281 256.163 293.281 259.211C293.281 262.277 290.796 264.744 287.748 264.744ZM328.495 285.662H246.983C243.936 285.662 241.45 283.177 241.45 280.129C241.45 277.063 243.936 274.595 246.983 274.595H328.495C331.561 274.595 334.028 277.063 334.028 280.129C334.028 283.177 331.561 285.662 328.495 285.662ZM328.495 306.561H246.983C243.936 306.561 241.45 304.094 241.45 301.028C241.45 297.98 243.936 295.495 246.983 295.495H328.495C331.561 295.495 334.028 297.98 334.028 301.028C334.028 304.094 331.561 306.561 328.495 306.561ZM225.322 240.761H183.505C180.439 240.761 177.972 238.275 177.972 235.228V193.411C177.972 190.345 180.439 187.877 183.505 187.877H225.322C228.37 187.877 230.855 190.345 230.855 193.411V235.228C230.855 238.275 228.37 240.761 225.322 240.761ZM189.038 229.694H219.789V198.944H189.038V229.694ZM287.748 198.944H246.983C243.936 198.944 241.45 196.458 241.45 193.411C241.45 190.345 243.936 187.877 246.983 187.877H287.748C290.796 187.877 293.281 190.345 293.281 193.411C293.281 196.458 290.796 198.944 287.748 198.944ZM328.495 219.843H246.983C243.936 219.843 241.45 217.376 241.45 214.31C241.45 211.262 243.936 208.777 246.983 208.777H328.495C331.561 208.777 334.028 211.262 334.028 214.31C334.028 217.376 331.561 219.843 328.495 219.843Z" fill="black"/>
</g>
<defs>
<clipPath id="clip0_179_1165">
<rect width="512" height="512" fill="white"/>
</clipPath>
</defs>
</svg>
