<svg id="Capa_1" enable-background="new 0 0 512 512" height="512" viewBox="0 0 512 512" width="512" xmlns="http://www.w3.org/2000/svg"><g><g><path d="m55.049 407.166c-27.755-39.718-44.049-88.036-44.049-140.166 0-135.31 109.69-245 245-245s245 109.69 245 245c0 52.13-16.294 100.448-44.049 140.166z" fill="#49d88b"/></g><g><circle cx="256" cy="242" fill="#38c674" r="200"/></g><g><path d="m109.204 248.951c0-4.737 1.372-9.148 3.737-12.87 2.23-3.51 2.79-7.758 1.544-11.726-1.321-4.206-1.505-8.823-.279-13.398s3.693-8.481 6.94-11.464c3.063-2.813 4.702-6.771 4.526-10.927-.187-4.405.83-8.912 3.199-13.014 2.368-4.102 5.763-7.236 9.671-9.277 3.687-1.925 6.295-5.324 7.2-9.383.959-4.303 3.108-8.393 6.458-11.743 3.35-3.349 7.439-5.498 11.743-6.458 4.059-.905 7.458-3.513 9.383-7.2 2.04-3.908 5.175-7.303 9.277-9.671s8.609-3.386 13.014-3.199c4.155.176 8.113-1.463 10.927-4.526 2.983-3.247 6.888-5.715 11.464-6.94 4.575-1.226 9.192-1.042 13.398.279 3.968 1.246 8.215.687 11.726-1.544 3.721-2.365 8.133-3.737 12.87-3.737s9.148 1.372 12.87 3.737c3.51 2.23 7.758 2.79 11.726 1.544 4.207-1.321 8.823-1.505 13.398-.279 4.576 1.226 8.481 3.693 11.464 6.94 2.813 3.063 6.771 4.702 10.927 4.526 4.405-.187 8.912.83 13.014 3.199 4.102 2.368 7.237 5.763 9.277 9.671 1.925 3.687 5.324 6.295 9.383 7.2 4.303.959 8.393 3.108 11.743 6.458s5.499 7.439 6.458 11.743c.905 4.059 3.513 7.458 7.2 9.383 3.908 2.041 7.303 5.175 9.671 9.277s3.386 8.609 3.199 13.014c-.176 4.155 1.463 8.113 4.526 10.927 3.247 2.983 5.714 6.888 6.94 11.464s1.042 9.192-.279 13.398c-1.246 3.968-.687 8.215 1.544 11.725 2.365 3.721 3.737 8.133 3.737 12.87s-1.372 9.148-3.737 12.87c-2.23 3.51-2.79 7.758-1.544 11.725 1.321 4.207 1.505 8.823.279 13.398s-3.693 8.481-6.94 11.464c-3.063 2.813-4.702 6.771-4.526 10.927.187 4.405-.83 8.912-3.199 13.014-2.368 4.102-5.763 7.236-9.671 9.277-3.687 1.925-6.295 5.324-7.2 9.383-.959 4.303-3.108 8.393-6.458 11.743-3.35 3.349-7.439 5.498-11.743 6.458-4.059.905-7.458 3.513-9.383 7.2-2.041 3.908-5.175 7.303-9.277 9.671s-8.609 3.386-13.014 3.199c-4.155-.176-8.113 1.463-10.927 4.526-2.983 3.247-6.888 5.714-11.464 6.94s-9.192 1.042-13.398-.279c-3.968-1.246-8.215-.687-11.725 1.544-3.721 2.365-8.133 3.737-12.87 3.737s-9.148-1.372-12.87-3.737c-3.51-2.23-7.758-2.79-11.725-1.544-4.207 1.321-8.823 1.505-13.398.279s-8.481-3.693-11.464-6.94c-2.813-3.063-6.771-4.702-10.927-4.526-4.405.187-8.912-.83-13.014-3.199-4.102-2.368-7.236-5.763-9.277-9.671-1.925-3.687-5.324-6.295-9.383-7.2-4.303-.959-8.393-3.108-11.743-6.458s-5.499-7.439-6.458-11.743c-.905-4.059-3.513-7.458-7.2-9.383-3.908-2.041-7.303-5.175-9.671-9.277s-3.386-8.609-3.199-13.014c.176-4.155-1.463-8.113-4.526-10.927-3.247-2.983-5.714-6.888-6.94-11.464s-1.042-9.192.279-13.398c1.246-3.968.687-8.215-1.544-11.726-2.367-3.719-3.739-8.131-3.739-12.868z" fill="#213159"/></g><g><path d="m102.383 457.831h307.235c18.06-14.558 34.021-31.615 47.333-50.665-.001-.009-.001-.017-.002-.026-8.256-22.709-16.99-42.685-24.722-51.911-.904-1.078-1.795-2.019-2.668-2.79-6.623-5.848-19.39-11.382-34.352-16.323-37.929-12.525-89.967-21.232-91.82-21.54h-94.772c-1.853.307-53.892 9.014-91.82 21.54-14.961 4.941-27.729 10.475-34.352 16.323-.874.772-1.765 1.712-2.668 2.79-7.732 9.226-16.467 29.203-24.722 51.911-.001.009-.001.018-.002.026 13.31 19.049 29.272 36.106 47.332 50.665z" fill="#a05838"/></g><g><path d="m102.383 457.831h118.606c-17.282-17.151-30.825-37.677-39.83-62.575-7.588-20.984-11.96-45.066-12.65-72.831v-.001c-16.433 3.612-35.381 8.297-51.715 13.691-14.961 4.941-27.729 10.475-34.352 16.323-.874.772-1.765 1.712-2.668 2.79-7.732 9.226-16.467 29.203-24.722 51.911-.001.009-.001.018-.002.026 13.311 19.05 29.273 36.107 47.333 50.666z" fill="#934a2e"/></g><g><path d="m391.147 471.33c6.374-4.223 12.555-8.713 18.491-13.499-4.027-11.7-11.689-21.884-21.736-29.06v42.559z" fill="#934a2e"/></g><g><path d="m124.098 471.33v-42.559c-10.047 7.176-17.708 17.36-21.736 29.06 5.936 4.786 12.117 9.277 18.491 13.499z" fill="#823821"/></g><g><path d="m379.202 415.644.017-.006c-.05-.05-.099-.098-.149-.148-1.882-2.145-3.921-4.152-6.097-6.012-35.607-34.723-69.588-61.613-69.588-94.903h-94.772c0 33.29-33.981 60.18-69.588 94.903-2.176 1.86-4.215 3.867-6.097 6.012-.05.05-.099.098-.149.148l.017.006c-11.756 13.487-17.434 32.166-13.151 51.388.604 2.713 1.146 4.246 1.165 4.298v.009c38.75 25.687 85.218 40.661 135.19 40.661 49.971 0 96.439-14.974 135.187-40.661l.001-.009c.019-.052.56-1.586 1.165-4.298 4.283-19.222-1.395-37.901-13.151-51.388z" fill="#ffdd40"/></g><g><path d="m208.614 221.239v93.336s19.021 20.093 47.17 20.093c.073 0 .143-.005.216-.005 28.031-.103 47.386-20.088 47.386-20.088v-93.336z" fill="#a05838"/></g><g><path d="m208.614 220.734v93.841c94.723 0 94.772-53.4 94.772-53.4v-40.44h-94.772z" fill="#934a2e"/></g><g><path d="m301.031 507.862c-56.84-22.966-99.707-56.85-119.872-112.606-2.368-6.548-4.422-13.398-6.15-20.567-10.814 11.031-23.29 22.412-35.983 34.789-2.176 1.86-4.215 3.867-6.097 6.012-.05.05-.099.098-.149.148l.017.006c-11.756 13.487-17.434 32.166-13.151 51.388.604 2.713 1.146 4.246 1.165 4.298v.009c38.749 25.687 85.217 40.661 135.189 40.661 15.384 0 30.434-1.424 45.031-4.138z" fill="#ffc839"/></g><g><path d="m339.003 36.423c-19.784-22.322-47.62-36.423-81.869-36.423s-48.985 5.638-62.772 12-14.708 34.073-14.708 34.073c-17.176 18.715-27.663 43.666-27.663 71.07v30.076h210.286v-30.076c0-23.009-3.49-58.398-23.274-80.72z" fill="#2d3c6b"/></g><g><path d="m151.991 117.143v30.076h42.846v-62.315c-10.759-7.032-15.794-24.117-15.183-38.831-17.176 18.714-27.663 43.666-27.663 71.07z" fill="#213159"/></g><g><path d="m331.058 159.567s10.385-25.285 28.897-19.415-.448 60.664-36.573 64.116z" fill="#a05838"/></g><g><path d="m180.942 159.567s-10.385-25.285-28.897-19.415.448 60.664 36.573 64.116z" fill="#934a2e"/></g><g><path d="m194.837 84.904c-10.322 3.439-17.93 12.279-20.432 22.867-2.552 10.801-6.002 27.519-6.002 38.984 0 64.505 39.219 140.155 87.597 140.155s87.597-75.65 87.597-140.155c0-1.674-.033-2.084-.085-3.733-81.411-.002-112.185-70.275-148.675-58.118z" fill="#b76c4e"/></g><g><path d="m276 282.564c-38.741-16.953-67.597-80.479-67.597-135.809 0-21.971 4.564-41.826 12.476-58.475-8.87-4.459-17.292-6.291-26.042-3.376-10.322 3.439-17.93 12.279-20.432 22.867-2.552 10.801-6.002 27.519-6.002 38.984 0 64.505 39.219 140.155 87.597 140.155 6.881 0 13.576-1.535 20-4.346z" fill="#a05838"/></g><g><ellipse cx="206" cy="187.484" fill="#f2bbad" rx="20" ry="15"/></g><g><ellipse cx="306" cy="187.484" fill="#f2bbad" rx="20" ry="15"/></g><g><path d="m256 244.985c-11.026 0-21.512-4.776-28.77-13.104-1.814-2.082-1.597-5.24.485-7.055 2.081-1.813 5.239-1.599 7.054.484 5.358 6.148 13.096 9.675 21.23 9.675s15.873-3.526 21.23-9.675c1.815-2.081 4.973-2.297 7.054-.484 2.082 1.814 2.299 4.973.485 7.055-7.256 8.328-17.742 13.104-28.768 13.104z" fill="#934a2e"/></g><g><path d="m196 132.917v-.005c0-3.045 1.951-5.736 4.829-6.731 8.513-2.944 16.772-2.959 25.337.003 2.88.996 4.834 3.685 4.834 6.733 0 4.883-4.783 8.211-9.427 6.701-5.247-1.706-10.9-1.706-16.147 0-4.642 1.51-9.426-1.818-9.426-6.701z" fill="#162544"/></g><g><path d="m316 132.917v-.005c0-3.045-1.951-5.736-4.829-6.731-8.513-2.944-16.772-2.959-25.337.003-2.88.996-4.834 3.685-4.834 6.733 0 4.883 4.783 8.211 9.427 6.701 5.247-1.706 10.9-1.706 16.147 0 4.643 1.51 9.426-1.818 9.426-6.701z" fill="#162544"/></g><g><path d="m310.999 162.085c.043-3.495-1.371-7.004-4.242-9.539-4.675-4.128-11.84-4.128-16.515 0-2.871 2.535-4.284 6.044-4.242 9.539.055 4.538 5.629 6.716 8.838 3.507 2.022-2.022 5.3-2.022 7.322 0 3.21 3.21 8.784 1.032 8.839-3.507z" fill="#162544"/></g><g><path d="m201.001 162.085c-.043-3.495 1.371-7.004 4.242-9.539 4.675-4.128 11.84-4.128 16.515 0 2.871 2.535 4.284 6.044 4.242 9.539-.055 4.538-5.629 6.716-8.838 3.507-2.022-2.022-5.3-2.022-7.322 0-3.21 3.21-8.784 1.032-8.839-3.507z" fill="#162544"/></g><g><g><path d="m242.013 192.447 8.436-13.441c2.569-4.093 8.533-4.093 11.102 0l8.436 13.441c2.739 4.365-.398 10.038-5.551 10.038h-16.871c-5.154-.001-8.291-5.674-5.552-10.038z" fill="#934a2e"/></g></g></g></svg>