<svg id="Layer_1" height="512" viewBox="0 0 151 151" width="512" xmlns="http://www.w3.org/2000/svg"><g><circle cx="75.5" cy="75.5" fill="#6fd153" r="75.1"/><g fill="#e5bb95"><ellipse cx="52" cy="60.2" rx="3.4" ry="10.2" transform="matrix(.992 -.131 .131 .992 -7.413 7.297)"/><ellipse cx="99" cy="60.2" rx="3.4" ry="10.2" transform="matrix(-.992 -.131 .131 -.992 189.312 132.857)"/><path d="m58.3 72.4h34.4v42h-34.4z"/></g><ellipse cx="75.5" cy="54.1" fill="#f2d3b7" rx="23.8" ry="37.2"/><path d="m90.5 81.5s-2.8-8.1-12.8-8.2c-.9 0-1.6.7-1.6 1.6 0 .8.6 1.4 1.3 1.5 2.5.4 7.7 1.5 8.1 3.6.5 2.7-5.9 9.9-8.7 2.9h-2.7c-2.7 7-9.1-.2-8.7-2.9.3-2.1 5.6-3.2 8.1-3.6.8-.1 1.3-.8 1.3-1.5 0-.9-.7-1.6-1.6-1.6-10 .1-12.8 8.2-12.8 8.2-1.4 11.8 15 14.3 15 14.3s16.5-2.5 15.1-14.3z" fill="#333842"/><path d="m62.7 28.3c-.7-1.9.1 4.1-.8 6-.9 2-2.6 3.6-4.1 5.4-4.5 5.5-6.4 13-5.2 20-1.3-1.1-.7-3.1-1.1-4.7-.4-1.8-1.9-3.1-3-4.6-2.8-4.1-1.6-9.5-.3-14.2-1.4 1.6-2.5 3.5-3.2 5.6-.1-2.1 0-4.2.6-6.3.4-1.4 1.2-2.8 1.9-4.1 1.4-2.6 2.9-5.1 4.3-7.7-1.3 1.1-2.4 2.3-3.2 3.7.7-2.7 1.8-5.4 3.6-7.6 1.9-2.1 4.6-3.7 7.5-3.5.5 0 2.1-.1 2.4-1 1.6-4.1 6.6-6.2 10.9-7.3s9.1-.7 13.1 1.2c4.1 1.9 7.7 5.2 12.2 5.5-1.2.6-2.6.8-3.9.6 5 2 9.2 6 11.4 10.9s2.4 10.6.5 15.7c-.7-2.6-2.1-5-4-6.9 2.4 3.1 3.2 15.1-1.7 21.4-.4.5-1.1.8-1.4 1.4-.7 1.1-.3 2.8-1.2 3.8.4-6.6-.7-13.3-3.4-19.4.3 1.8.6 3.7.8 5.5-1.3-.4-2-1.7-2.4-3s-.4-2.6-1-3.8c-1.7-3.9-7.2-4.7-9.8-8.2.4 2.9 2.3 5.7 4.9 7.1-2.4-.3-4.1-2.3-5.9-3.9-4.8-4.1-5.7-6-11.7-4 .3 0-5.8-.8-6.8-3.6z" fill="#333842"/><path d="m68.1 110.6-14.9-13.3-22.2 7.1c-5.3 1.7-9.5 6-11 11.3l-2.2 7.7c13.8 16.6 34.5 27.2 57.8 27.2v-41.4z" fill="#f8b25c"/><path d="m58.3 91.3s1 12.1 17.2 17.8l-10.5 9.9s-11.5-10.5-11.8-21.6z" fill="#d7924d"/><path d="m131.1 115.7c-1.6-5.4-5.7-9.6-11-11.3l-22.2-7.1-14.9 13.3-7.4-1.4v41.4c23.2 0 44-10.6 57.8-27.2z" fill="#d8914f"/><path d="m92.7 91.3s-1 12.1-17.2 17.8l10.5 9.9s11.5-10.5 11.8-21.6z" fill="#f8b25c"/></g></svg>